ISO-10303-21;
HEADER;
/* Generated by software containing ST-Developer
 * from STEP Tools, Inc. (www.steptools.com) 
 */

FILE_DESCRIPTION(
/* description */ (''),
/* implementation_level */ '2;1');

FILE_NAME(
/* name */ 
'C:\\Users\\sddj_\\OneDrive\\Documentos\\Inventor\\Projects\\UpgradeIm
presora3D\\Perfil2020.stp',
/* time_stamp */ '2021-02-14T00:12:14-05:00',
/* author */ ('sddj_'),
/* organization */ (''),
/* preprocessor_version */ 'ST-DEVELOPER v18.1',
/* originating_system */ 'Autodesk Inventor 2021',
/* authorisation */ '');

FILE_SCHEMA (('AUTOMOTIVE_DESIGN { 1 0 10303 214 3 1 1 }'));
ENDSEC;

DATA;
#10=MECHANICAL_DESIGN_GEOMETRIC_PRESENTATION_REPRESENTATION('',(#13),#1952);
#11=SHAPE_REPRESENTATION_RELATIONSHIP('SRR','None',#1959,#12);
#12=ADVANCED_BREP_SHAPE_REPRESENTATION('',(#14),#1951);
#13=STYLED_ITEM('',(#1968),#14);
#14=MANIFOLD_SOLID_BREP('S\X\F3lido1',#1214);
#15=FACE_BOUND('',#133,.T.);
#16=FACE_BOUND('',#190,.T.);
#17=PLANE('',#1237);
#18=PLANE('',#1238);
#19=PLANE('',#1245);
#20=PLANE('',#1248);
#21=PLANE('',#1251);
#22=PLANE('',#1254);
#23=PLANE('',#1255);
#24=PLANE('',#1256);
#25=PLANE('',#1257);
#26=PLANE('',#1258);
#27=PLANE('',#1259);
#28=PLANE('',#1260);
#29=PLANE('',#1261);
#30=PLANE('',#1262);
#31=PLANE('',#1263);
#32=PLANE('',#1264);
#33=PLANE('',#1265);
#34=PLANE('',#1266);
#35=PLANE('',#1267);
#36=PLANE('',#1268);
#37=PLANE('',#1269);
#38=PLANE('',#1270);
#39=PLANE('',#1271);
#40=PLANE('',#1272);
#41=PLANE('',#1273);
#42=PLANE('',#1274);
#43=PLANE('',#1275);
#44=PLANE('',#1276);
#45=PLANE('',#1277);
#46=PLANE('',#1278);
#47=PLANE('',#1279);
#48=PLANE('',#1280);
#49=PLANE('',#1281);
#50=PLANE('',#1282);
#51=PLANE('',#1283);
#52=PLANE('',#1284);
#53=PLANE('',#1285);
#54=PLANE('',#1286);
#55=PLANE('',#1287);
#56=PLANE('',#1288);
#57=PLANE('',#1289);
#58=PLANE('',#1290);
#59=PLANE('',#1291);
#60=PLANE('',#1292);
#61=PLANE('',#1293);
#62=PLANE('',#1294);
#63=PLANE('',#1295);
#64=PLANE('',#1296);
#65=PLANE('',#1297);
#66=PLANE('',#1298);
#67=PLANE('',#1299);
#68=PLANE('',#1300);
#69=PLANE('',#1301);
#70=PLANE('',#1302);
#71=FACE_OUTER_BOUND('',#130,.T.);
#72=FACE_OUTER_BOUND('',#131,.T.);
#73=FACE_OUTER_BOUND('',#132,.T.);
#74=FACE_OUTER_BOUND('',#134,.T.);
#75=FACE_OUTER_BOUND('',#135,.T.);
#76=FACE_OUTER_BOUND('',#136,.T.);
#77=FACE_OUTER_BOUND('',#137,.T.);
#78=FACE_OUTER_BOUND('',#138,.T.);
#79=FACE_OUTER_BOUND('',#139,.T.);
#80=FACE_OUTER_BOUND('',#140,.T.);
#81=FACE_OUTER_BOUND('',#141,.T.);
#82=FACE_OUTER_BOUND('',#142,.T.);
#83=FACE_OUTER_BOUND('',#143,.T.);
#84=FACE_OUTER_BOUND('',#144,.T.);
#85=FACE_OUTER_BOUND('',#145,.T.);
#86=FACE_OUTER_BOUND('',#146,.T.);
#87=FACE_OUTER_BOUND('',#147,.T.);
#88=FACE_OUTER_BOUND('',#148,.T.);
#89=FACE_OUTER_BOUND('',#149,.T.);
#90=FACE_OUTER_BOUND('',#150,.T.);
#91=FACE_OUTER_BOUND('',#151,.T.);
#92=FACE_OUTER_BOUND('',#152,.T.);
#93=FACE_OUTER_BOUND('',#153,.T.);
#94=FACE_OUTER_BOUND('',#154,.T.);
#95=FACE_OUTER_BOUND('',#155,.T.);
#96=FACE_OUTER_BOUND('',#156,.T.);
#97=FACE_OUTER_BOUND('',#157,.T.);
#98=FACE_OUTER_BOUND('',#158,.T.);
#99=FACE_OUTER_BOUND('',#159,.T.);
#100=FACE_OUTER_BOUND('',#160,.T.);
#101=FACE_OUTER_BOUND('',#161,.T.);
#102=FACE_OUTER_BOUND('',#162,.T.);
#103=FACE_OUTER_BOUND('',#163,.T.);
#104=FACE_OUTER_BOUND('',#164,.T.);
#105=FACE_OUTER_BOUND('',#165,.T.);
#106=FACE_OUTER_BOUND('',#166,.T.);
#107=FACE_OUTER_BOUND('',#167,.T.);
#108=FACE_OUTER_BOUND('',#168,.T.);
#109=FACE_OUTER_BOUND('',#169,.T.);
#110=FACE_OUTER_BOUND('',#170,.T.);
#111=FACE_OUTER_BOUND('',#171,.T.);
#112=FACE_OUTER_BOUND('',#172,.T.);
#113=FACE_OUTER_BOUND('',#173,.T.);
#114=FACE_OUTER_BOUND('',#174,.T.);
#115=FACE_OUTER_BOUND('',#175,.T.);
#116=FACE_OUTER_BOUND('',#176,.T.);
#117=FACE_OUTER_BOUND('',#177,.T.);
#118=FACE_OUTER_BOUND('',#178,.T.);
#119=FACE_OUTER_BOUND('',#179,.T.);
#120=FACE_OUTER_BOUND('',#180,.T.);
#121=FACE_OUTER_BOUND('',#181,.T.);
#122=FACE_OUTER_BOUND('',#182,.T.);
#123=FACE_OUTER_BOUND('',#183,.T.);
#124=FACE_OUTER_BOUND('',#184,.T.);
#125=FACE_OUTER_BOUND('',#185,.T.);
#126=FACE_OUTER_BOUND('',#186,.T.);
#127=FACE_OUTER_BOUND('',#187,.T.);
#128=FACE_OUTER_BOUND('',#188,.T.);
#129=FACE_OUTER_BOUND('',#189,.T.);
#130=EDGE_LOOP('',(#808,#809,#810,#811));
#131=EDGE_LOOP('',(#812,#813,#814,#815));
#132=EDGE_LOOP('',(#816,#817,#818,#819,#820,#821,#822,#823,#824,#825,#826,
#827,#828,#829,#830,#831,#832,#833,#834,#835,#836,#837,#838,#839,#840,#841,
#842,#843,#844,#845,#846,#847,#848,#849,#850,#851,#852,#853,#854,#855,#856,
#857,#858,#859,#860,#861,#862,#863,#864,#865,#866,#867,#868,#869,#870,#871));
#133=EDGE_LOOP('',(#872));
#134=EDGE_LOOP('',(#873,#874,#875,#876));
#135=EDGE_LOOP('',(#877,#878,#879,#880));
#136=EDGE_LOOP('',(#881,#882,#883,#884));
#137=EDGE_LOOP('',(#885,#886,#887,#888));
#138=EDGE_LOOP('',(#889,#890,#891,#892));
#139=EDGE_LOOP('',(#893,#894,#895,#896));
#140=EDGE_LOOP('',(#897,#898,#899,#900));
#141=EDGE_LOOP('',(#901,#902,#903,#904));
#142=EDGE_LOOP('',(#905,#906,#907,#908));
#143=EDGE_LOOP('',(#909,#910,#911,#912));
#144=EDGE_LOOP('',(#913,#914,#915,#916));
#145=EDGE_LOOP('',(#917,#918,#919,#920));
#146=EDGE_LOOP('',(#921,#922,#923,#924));
#147=EDGE_LOOP('',(#925,#926,#927,#928));
#148=EDGE_LOOP('',(#929,#930,#931,#932));
#149=EDGE_LOOP('',(#933,#934,#935,#936));
#150=EDGE_LOOP('',(#937,#938,#939,#940));
#151=EDGE_LOOP('',(#941,#942,#943,#944));
#152=EDGE_LOOP('',(#945,#946,#947,#948));
#153=EDGE_LOOP('',(#949,#950,#951,#952));
#154=EDGE_LOOP('',(#953,#954,#955,#956));
#155=EDGE_LOOP('',(#957,#958,#959,#960));
#156=EDGE_LOOP('',(#961,#962,#963,#964));
#157=EDGE_LOOP('',(#965,#966,#967,#968));
#158=EDGE_LOOP('',(#969,#970,#971,#972));
#159=EDGE_LOOP('',(#973,#974,#975,#976));
#160=EDGE_LOOP('',(#977,#978,#979,#980));
#161=EDGE_LOOP('',(#981,#982,#983,#984));
#162=EDGE_LOOP('',(#985,#986,#987,#988));
#163=EDGE_LOOP('',(#989,#990,#991,#992));
#164=EDGE_LOOP('',(#993,#994,#995,#996));
#165=EDGE_LOOP('',(#997,#998,#999,#1000));
#166=EDGE_LOOP('',(#1001,#1002,#1003,#1004));
#167=EDGE_LOOP('',(#1005,#1006,#1007,#1008));
#168=EDGE_LOOP('',(#1009,#1010,#1011,#1012));
#169=EDGE_LOOP('',(#1013,#1014,#1015,#1016));
#170=EDGE_LOOP('',(#1017,#1018,#1019,#1020));
#171=EDGE_LOOP('',(#1021,#1022,#1023,#1024));
#172=EDGE_LOOP('',(#1025,#1026,#1027,#1028));
#173=EDGE_LOOP('',(#1029,#1030,#1031,#1032));
#174=EDGE_LOOP('',(#1033,#1034,#1035,#1036));
#175=EDGE_LOOP('',(#1037,#1038,#1039,#1040));
#176=EDGE_LOOP('',(#1041,#1042,#1043,#1044));
#177=EDGE_LOOP('',(#1045,#1046,#1047,#1048));
#178=EDGE_LOOP('',(#1049,#1050,#1051,#1052));
#179=EDGE_LOOP('',(#1053,#1054,#1055,#1056));
#180=EDGE_LOOP('',(#1057,#1058,#1059,#1060));
#181=EDGE_LOOP('',(#1061,#1062,#1063,#1064));
#182=EDGE_LOOP('',(#1065,#1066,#1067,#1068));
#183=EDGE_LOOP('',(#1069,#1070,#1071,#1072));
#184=EDGE_LOOP('',(#1073,#1074,#1075,#1076));
#185=EDGE_LOOP('',(#1077,#1078,#1079,#1080));
#186=EDGE_LOOP('',(#1081,#1082,#1083,#1084));
#187=EDGE_LOOP('',(#1085,#1086,#1087,#1088));
#188=EDGE_LOOP('',(#1089,#1090,#1091,#1092));
#189=EDGE_LOOP('',(#1093,#1094,#1095,#1096,#1097,#1098,#1099,#1100,#1101,
#1102,#1103,#1104,#1105,#1106,#1107,#1108,#1109,#1110,#1111,#1112,#1113,
#1114,#1115,#1116,#1117,#1118,#1119,#1120,#1121,#1122,#1123,#1124,#1125,
#1126,#1127,#1128,#1129,#1130,#1131,#1132,#1133,#1134,#1135,#1136,#1137,
#1138,#1139,#1140,#1141,#1142,#1143,#1144,#1145,#1146,#1147,#1148));
#190=EDGE_LOOP('',(#1149));
#191=LINE('',#1610,#352);
#192=LINE('',#1613,#353);
#193=LINE('',#1616,#354);
#194=LINE('',#1618,#355);
#195=LINE('',#1619,#356);
#196=LINE('',#1622,#357);
#197=LINE('',#1624,#358);
#198=LINE('',#1626,#359);
#199=LINE('',#1628,#360);
#200=LINE('',#1630,#361);
#201=LINE('',#1632,#362);
#202=LINE('',#1634,#363);
#203=LINE('',#1636,#364);
#204=LINE('',#1638,#365);
#205=LINE('',#1640,#366);
#206=LINE('',#1642,#367);
#207=LINE('',#1644,#368);
#208=LINE('',#1646,#369);
#209=LINE('',#1650,#370);
#210=LINE('',#1652,#371);
#211=LINE('',#1654,#372);
#212=LINE('',#1656,#373);
#213=LINE('',#1658,#374);
#214=LINE('',#1660,#375);
#215=LINE('',#1662,#376);
#216=LINE('',#1664,#377);
#217=LINE('',#1666,#378);
#218=LINE('',#1668,#379);
#219=LINE('',#1670,#380);
#220=LINE('',#1672,#381);
#221=LINE('',#1674,#382);
#222=LINE('',#1678,#383);
#223=LINE('',#1680,#384);
#224=LINE('',#1682,#385);
#225=LINE('',#1684,#386);
#226=LINE('',#1686,#387);
#227=LINE('',#1688,#388);
#228=LINE('',#1690,#389);
#229=LINE('',#1692,#390);
#230=LINE('',#1694,#391);
#231=LINE('',#1696,#392);
#232=LINE('',#1698,#393);
#233=LINE('',#1700,#394);
#234=LINE('',#1702,#395);
#235=LINE('',#1706,#396);
#236=LINE('',#1708,#397);
#237=LINE('',#1710,#398);
#238=LINE('',#1712,#399);
#239=LINE('',#1714,#400);
#240=LINE('',#1716,#401);
#241=LINE('',#1718,#402);
#242=LINE('',#1720,#403);
#243=LINE('',#1722,#404);
#244=LINE('',#1724,#405);
#245=LINE('',#1726,#406);
#246=LINE('',#1727,#407);
#247=LINE('',#1734,#408);
#248=LINE('',#1735,#409);
#249=LINE('',#1738,#410);
#250=LINE('',#1739,#411);
#251=LINE('',#1744,#412);
#252=LINE('',#1745,#413);
#253=LINE('',#1748,#414);
#254=LINE('',#1749,#415);
#255=LINE('',#1754,#416);
#256=LINE('',#1755,#417);
#257=LINE('',#1758,#418);
#258=LINE('',#1759,#419);
#259=LINE('',#1763,#420);
#260=LINE('',#1766,#421);
#261=LINE('',#1768,#422);
#262=LINE('',#1769,#423);
#263=LINE('',#1772,#424);
#264=LINE('',#1773,#425);
#265=LINE('',#1776,#426);
#266=LINE('',#1777,#427);
#267=LINE('',#1779,#428);
#268=LINE('',#1782,#429);
#269=LINE('',#1783,#430);
#270=LINE('',#1786,#431);
#271=LINE('',#1787,#432);
#272=LINE('',#1790,#433);
#273=LINE('',#1791,#434);
#274=LINE('',#1794,#435);
#275=LINE('',#1795,#436);
#276=LINE('',#1798,#437);
#277=LINE('',#1799,#438);
#278=LINE('',#1802,#439);
#279=LINE('',#1803,#440);
#280=LINE('',#1806,#441);
#281=LINE('',#1807,#442);
#282=LINE('',#1810,#443);
#283=LINE('',#1811,#444);
#284=LINE('',#1814,#445);
#285=LINE('',#1815,#446);
#286=LINE('',#1818,#447);
#287=LINE('',#1819,#448);
#288=LINE('',#1822,#449);
#289=LINE('',#1823,#450);
#290=LINE('',#1825,#451);
#291=LINE('',#1828,#452);
#292=LINE('',#1829,#453);
#293=LINE('',#1832,#454);
#294=LINE('',#1833,#455);
#295=LINE('',#1836,#456);
#296=LINE('',#1837,#457);
#297=LINE('',#1840,#458);
#298=LINE('',#1841,#459);
#299=LINE('',#1844,#460);
#300=LINE('',#1845,#461);
#301=LINE('',#1848,#462);
#302=LINE('',#1849,#463);
#303=LINE('',#1852,#464);
#304=LINE('',#1853,#465);
#305=LINE('',#1856,#466);
#306=LINE('',#1857,#467);
#307=LINE('',#1860,#468);
#308=LINE('',#1861,#469);
#309=LINE('',#1864,#470);
#310=LINE('',#1865,#471);
#311=LINE('',#1868,#472);
#312=LINE('',#1869,#473);
#313=LINE('',#1871,#474);
#314=LINE('',#1874,#475);
#315=LINE('',#1875,#476);
#316=LINE('',#1878,#477);
#317=LINE('',#1879,#478);
#318=LINE('',#1882,#479);
#319=LINE('',#1883,#480);
#320=LINE('',#1886,#481);
#321=LINE('',#1887,#482);
#322=LINE('',#1890,#483);
#323=LINE('',#1891,#484);
#324=LINE('',#1894,#485);
#325=LINE('',#1895,#486);
#326=LINE('',#1898,#487);
#327=LINE('',#1899,#488);
#328=LINE('',#1902,#489);
#329=LINE('',#1903,#490);
#330=LINE('',#1906,#491);
#331=LINE('',#1907,#492);
#332=LINE('',#1910,#493);
#333=LINE('',#1911,#494);
#334=LINE('',#1914,#495);
#335=LINE('',#1915,#496);
#336=LINE('',#1918,#497);
#337=LINE('',#1919,#498);
#338=LINE('',#1921,#499);
#339=LINE('',#1924,#500);
#340=LINE('',#1925,#501);
#341=LINE('',#1928,#502);
#342=LINE('',#1929,#503);
#343=LINE('',#1932,#504);
#344=LINE('',#1933,#505);
#345=LINE('',#1936,#506);
#346=LINE('',#1937,#507);
#347=LINE('',#1940,#508);
#348=LINE('',#1941,#509);
#349=LINE('',#1944,#510);
#350=LINE('',#1945,#511);
#351=LINE('',#1947,#512);
#352=VECTOR('',#1309,10.);
#353=VECTOR('',#1312,10.);
#354=VECTOR('',#1315,10.);
#355=VECTOR('',#1316,10.);
#356=VECTOR('',#1317,10.);
#357=VECTOR('',#1320,10.);
#358=VECTOR('',#1321,10.);
#359=VECTOR('',#1322,10.);
#360=VECTOR('',#1323,10.);
#361=VECTOR('',#1324,10.);
#362=VECTOR('',#1325,10.);
#363=VECTOR('',#1326,10.);
#364=VECTOR('',#1327,10.);
#365=VECTOR('',#1328,10.);
#366=VECTOR('',#1329,10.);
#367=VECTOR('',#1330,10.);
#368=VECTOR('',#1331,10.);
#369=VECTOR('',#1332,10.);
#370=VECTOR('',#1335,10.);
#371=VECTOR('',#1336,10.);
#372=VECTOR('',#1337,10.);
#373=VECTOR('',#1338,10.);
#374=VECTOR('',#1339,10.);
#375=VECTOR('',#1340,10.);
#376=VECTOR('',#1341,10.);
#377=VECTOR('',#1342,10.);
#378=VECTOR('',#1343,10.);
#379=VECTOR('',#1344,10.);
#380=VECTOR('',#1345,10.);
#381=VECTOR('',#1346,10.);
#382=VECTOR('',#1347,10.);
#383=VECTOR('',#1350,10.);
#384=VECTOR('',#1351,10.);
#385=VECTOR('',#1352,10.);
#386=VECTOR('',#1353,10.);
#387=VECTOR('',#1354,10.);
#388=VECTOR('',#1355,10.);
#389=VECTOR('',#1356,10.);
#390=VECTOR('',#1357,10.);
#391=VECTOR('',#1358,10.);
#392=VECTOR('',#1359,10.);
#393=VECTOR('',#1360,10.);
#394=VECTOR('',#1361,10.);
#395=VECTOR('',#1362,10.);
#396=VECTOR('',#1365,10.);
#397=VECTOR('',#1366,10.);
#398=VECTOR('',#1367,10.);
#399=VECTOR('',#1368,10.);
#400=VECTOR('',#1369,10.);
#401=VECTOR('',#1370,10.);
#402=VECTOR('',#1371,10.);
#403=VECTOR('',#1372,10.);
#404=VECTOR('',#1373,10.);
#405=VECTOR('',#1374,10.);
#406=VECTOR('',#1375,10.);
#407=VECTOR('',#1376,10.);
#408=VECTOR('',#1383,10.);
#409=VECTOR('',#1384,10.);
#410=VECTOR('',#1387,10.);
#411=VECTOR('',#1388,10.);
#412=VECTOR('',#1393,10.);
#413=VECTOR('',#1394,10.);
#414=VECTOR('',#1397,10.);
#415=VECTOR('',#1398,10.);
#416=VECTOR('',#1403,10.);
#417=VECTOR('',#1404,10.);
#418=VECTOR('',#1407,10.);
#419=VECTOR('',#1408,10.);
#420=VECTOR('',#1413,2.1);
#421=VECTOR('',#1416,10.);
#422=VECTOR('',#1417,10.);
#423=VECTOR('',#1418,10.);
#424=VECTOR('',#1421,10.);
#425=VECTOR('',#1422,10.);
#426=VECTOR('',#1425,10.);
#427=VECTOR('',#1426,10.);
#428=VECTOR('',#1429,10.);
#429=VECTOR('',#1432,10.);
#430=VECTOR('',#1433,10.);
#431=VECTOR('',#1436,10.);
#432=VECTOR('',#1437,10.);
#433=VECTOR('',#1440,10.);
#434=VECTOR('',#1441,10.);
#435=VECTOR('',#1444,10.);
#436=VECTOR('',#1445,10.);
#437=VECTOR('',#1448,10.);
#438=VECTOR('',#1449,10.);
#439=VECTOR('',#1452,10.);
#440=VECTOR('',#1453,10.);
#441=VECTOR('',#1456,10.);
#442=VECTOR('',#1457,10.);
#443=VECTOR('',#1460,10.);
#444=VECTOR('',#1461,10.);
#445=VECTOR('',#1464,10.);
#446=VECTOR('',#1465,10.);
#447=VECTOR('',#1468,10.);
#448=VECTOR('',#1469,10.);
#449=VECTOR('',#1472,10.);
#450=VECTOR('',#1473,10.);
#451=VECTOR('',#1476,10.);
#452=VECTOR('',#1479,10.);
#453=VECTOR('',#1480,10.);
#454=VECTOR('',#1483,10.);
#455=VECTOR('',#1484,10.);
#456=VECTOR('',#1487,10.);
#457=VECTOR('',#1488,10.);
#458=VECTOR('',#1491,10.);
#459=VECTOR('',#1492,10.);
#460=VECTOR('',#1495,10.);
#461=VECTOR('',#1496,10.);
#462=VECTOR('',#1499,10.);
#463=VECTOR('',#1500,10.);
#464=VECTOR('',#1503,10.);
#465=VECTOR('',#1504,10.);
#466=VECTOR('',#1507,10.);
#467=VECTOR('',#1508,10.);
#468=VECTOR('',#1511,10.);
#469=VECTOR('',#1512,10.);
#470=VECTOR('',#1515,10.);
#471=VECTOR('',#1516,10.);
#472=VECTOR('',#1519,10.);
#473=VECTOR('',#1520,10.);
#474=VECTOR('',#1523,10.);
#475=VECTOR('',#1526,10.);
#476=VECTOR('',#1527,10.);
#477=VECTOR('',#1530,10.);
#478=VECTOR('',#1531,10.);
#479=VECTOR('',#1534,10.);
#480=VECTOR('',#1535,10.);
#481=VECTOR('',#1538,10.);
#482=VECTOR('',#1539,10.);
#483=VECTOR('',#1542,10.);
#484=VECTOR('',#1543,10.);
#485=VECTOR('',#1546,10.);
#486=VECTOR('',#1547,10.);
#487=VECTOR('',#1550,10.);
#488=VECTOR('',#1551,10.);
#489=VECTOR('',#1554,10.);
#490=VECTOR('',#1555,10.);
#491=VECTOR('',#1558,10.);
#492=VECTOR('',#1559,10.);
#493=VECTOR('',#1562,10.);
#494=VECTOR('',#1563,10.);
#495=VECTOR('',#1566,10.);
#496=VECTOR('',#1567,10.);
#497=VECTOR('',#1570,10.);
#498=VECTOR('',#1571,10.);
#499=VECTOR('',#1574,10.);
#500=VECTOR('',#1577,10.);
#501=VECTOR('',#1578,10.);
#502=VECTOR('',#1581,10.);
#503=VECTOR('',#1582,10.);
#504=VECTOR('',#1585,10.);
#505=VECTOR('',#1586,10.);
#506=VECTOR('',#1589,10.);
#507=VECTOR('',#1590,10.);
#508=VECTOR('',#1593,10.);
#509=VECTOR('',#1594,10.);
#510=VECTOR('',#1597,10.);
#511=VECTOR('',#1598,10.);
#512=VECTOR('',#1601,10.);
#513=CIRCLE('',#1235,0.5);
#514=CIRCLE('',#1236,0.5);
#515=CIRCLE('',#1239,0.5);
#516=CIRCLE('',#1240,0.5);
#517=CIRCLE('',#1241,0.5);
#518=CIRCLE('',#1242,2.1);
#519=CIRCLE('',#1244,0.5);
#520=CIRCLE('',#1247,0.5);
#521=CIRCLE('',#1250,0.5);
#522=CIRCLE('',#1253,2.1);
#523=VERTEX_POINT('',#1606);
#524=VERTEX_POINT('',#1607);
#525=VERTEX_POINT('',#1609);
#526=VERTEX_POINT('',#1611);
#527=VERTEX_POINT('',#1615);
#528=VERTEX_POINT('',#1617);
#529=VERTEX_POINT('',#1621);
#530=VERTEX_POINT('',#1623);
#531=VERTEX_POINT('',#1625);
#532=VERTEX_POINT('',#1627);
#533=VERTEX_POINT('',#1629);
#534=VERTEX_POINT('',#1631);
#535=VERTEX_POINT('',#1633);
#536=VERTEX_POINT('',#1635);
#537=VERTEX_POINT('',#1637);
#538=VERTEX_POINT('',#1639);
#539=VERTEX_POINT('',#1641);
#540=VERTEX_POINT('',#1643);
#541=VERTEX_POINT('',#1645);
#542=VERTEX_POINT('',#1647);
#543=VERTEX_POINT('',#1649);
#544=VERTEX_POINT('',#1651);
#545=VERTEX_POINT('',#1653);
#546=VERTEX_POINT('',#1655);
#547=VERTEX_POINT('',#1657);
#548=VERTEX_POINT('',#1659);
#549=VERTEX_POINT('',#1661);
#550=VERTEX_POINT('',#1663);
#551=VERTEX_POINT('',#1665);
#552=VERTEX_POINT('',#1667);
#553=VERTEX_POINT('',#1669);
#554=VERTEX_POINT('',#1671);
#555=VERTEX_POINT('',#1673);
#556=VERTEX_POINT('',#1675);
#557=VERTEX_POINT('',#1677);
#558=VERTEX_POINT('',#1679);
#559=VERTEX_POINT('',#1681);
#560=VERTEX_POINT('',#1683);
#561=VERTEX_POINT('',#1685);
#562=VERTEX_POINT('',#1687);
#563=VERTEX_POINT('',#1689);
#564=VERTEX_POINT('',#1691);
#565=VERTEX_POINT('',#1693);
#566=VERTEX_POINT('',#1695);
#567=VERTEX_POINT('',#1697);
#568=VERTEX_POINT('',#1699);
#569=VERTEX_POINT('',#1701);
#570=VERTEX_POINT('',#1703);
#571=VERTEX_POINT('',#1705);
#572=VERTEX_POINT('',#1707);
#573=VERTEX_POINT('',#1709);
#574=VERTEX_POINT('',#1711);
#575=VERTEX_POINT('',#1713);
#576=VERTEX_POINT('',#1715);
#577=VERTEX_POINT('',#1717);
#578=VERTEX_POINT('',#1719);
#579=VERTEX_POINT('',#1721);
#580=VERTEX_POINT('',#1723);
#581=VERTEX_POINT('',#1725);
#582=VERTEX_POINT('',#1728);
#583=VERTEX_POINT('',#1731);
#584=VERTEX_POINT('',#1732);
#585=VERTEX_POINT('',#1737);
#586=VERTEX_POINT('',#1741);
#587=VERTEX_POINT('',#1742);
#588=VERTEX_POINT('',#1747);
#589=VERTEX_POINT('',#1751);
#590=VERTEX_POINT('',#1752);
#591=VERTEX_POINT('',#1757);
#592=VERTEX_POINT('',#1761);
#593=VERTEX_POINT('',#1765);
#594=VERTEX_POINT('',#1767);
#595=VERTEX_POINT('',#1771);
#596=VERTEX_POINT('',#1775);
#597=VERTEX_POINT('',#1781);
#598=VERTEX_POINT('',#1785);
#599=VERTEX_POINT('',#1789);
#600=VERTEX_POINT('',#1793);
#601=VERTEX_POINT('',#1797);
#602=VERTEX_POINT('',#1801);
#603=VERTEX_POINT('',#1805);
#604=VERTEX_POINT('',#1809);
#605=VERTEX_POINT('',#1813);
#606=VERTEX_POINT('',#1817);
#607=VERTEX_POINT('',#1821);
#608=VERTEX_POINT('',#1827);
#609=VERTEX_POINT('',#1831);
#610=VERTEX_POINT('',#1835);
#611=VERTEX_POINT('',#1839);
#612=VERTEX_POINT('',#1843);
#613=VERTEX_POINT('',#1847);
#614=VERTEX_POINT('',#1851);
#615=VERTEX_POINT('',#1855);
#616=VERTEX_POINT('',#1859);
#617=VERTEX_POINT('',#1863);
#618=VERTEX_POINT('',#1867);
#619=VERTEX_POINT('',#1873);
#620=VERTEX_POINT('',#1877);
#621=VERTEX_POINT('',#1881);
#622=VERTEX_POINT('',#1885);
#623=VERTEX_POINT('',#1889);
#624=VERTEX_POINT('',#1893);
#625=VERTEX_POINT('',#1897);
#626=VERTEX_POINT('',#1901);
#627=VERTEX_POINT('',#1905);
#628=VERTEX_POINT('',#1909);
#629=VERTEX_POINT('',#1913);
#630=VERTEX_POINT('',#1917);
#631=VERTEX_POINT('',#1923);
#632=VERTEX_POINT('',#1927);
#633=VERTEX_POINT('',#1931);
#634=VERTEX_POINT('',#1935);
#635=VERTEX_POINT('',#1939);
#636=VERTEX_POINT('',#1943);
#637=EDGE_CURVE('',#523,#524,#513,.T.);
#638=EDGE_CURVE('',#524,#525,#191,.T.);
#639=EDGE_CURVE('',#525,#526,#514,.T.);
#640=EDGE_CURVE('',#526,#523,#192,.T.);
#641=EDGE_CURVE('',#527,#526,#193,.T.);
#642=EDGE_CURVE('',#527,#528,#194,.T.);
#643=EDGE_CURVE('',#523,#528,#195,.T.);
#644=EDGE_CURVE('',#525,#529,#196,.T.);
#645=EDGE_CURVE('',#529,#530,#197,.T.);
#646=EDGE_CURVE('',#530,#531,#198,.T.);
#647=EDGE_CURVE('',#531,#532,#199,.T.);
#648=EDGE_CURVE('',#532,#533,#200,.T.);
#649=EDGE_CURVE('',#533,#534,#201,.T.);
#650=EDGE_CURVE('',#534,#535,#202,.T.);
#651=EDGE_CURVE('',#535,#536,#203,.T.);
#652=EDGE_CURVE('',#536,#537,#204,.T.);
#653=EDGE_CURVE('',#537,#538,#205,.T.);
#654=EDGE_CURVE('',#538,#539,#206,.T.);
#655=EDGE_CURVE('',#539,#540,#207,.T.);
#656=EDGE_CURVE('',#540,#541,#208,.T.);
#657=EDGE_CURVE('',#542,#541,#515,.T.);
#658=EDGE_CURVE('',#542,#543,#209,.T.);
#659=EDGE_CURVE('',#543,#544,#210,.T.);
#660=EDGE_CURVE('',#544,#545,#211,.T.);
#661=EDGE_CURVE('',#545,#546,#212,.T.);
#662=EDGE_CURVE('',#546,#547,#213,.T.);
#663=EDGE_CURVE('',#547,#548,#214,.T.);
#664=EDGE_CURVE('',#548,#549,#215,.T.);
#665=EDGE_CURVE('',#549,#550,#216,.T.);
#666=EDGE_CURVE('',#550,#551,#217,.T.);
#667=EDGE_CURVE('',#551,#552,#218,.T.);
#668=EDGE_CURVE('',#552,#553,#219,.T.);
#669=EDGE_CURVE('',#553,#554,#220,.T.);
#670=EDGE_CURVE('',#554,#555,#221,.T.);
#671=EDGE_CURVE('',#556,#555,#516,.T.);
#672=EDGE_CURVE('',#556,#557,#222,.T.);
#673=EDGE_CURVE('',#557,#558,#223,.T.);
#674=EDGE_CURVE('',#558,#559,#224,.T.);
#675=EDGE_CURVE('',#559,#560,#225,.T.);
#676=EDGE_CURVE('',#560,#561,#226,.T.);
#677=EDGE_CURVE('',#561,#562,#227,.T.);
#678=EDGE_CURVE('',#562,#563,#228,.T.);
#679=EDGE_CURVE('',#563,#564,#229,.T.);
#680=EDGE_CURVE('',#564,#565,#230,.T.);
#681=EDGE_CURVE('',#565,#566,#231,.T.);
#682=EDGE_CURVE('',#566,#567,#232,.T.);
#683=EDGE_CURVE('',#567,#568,#233,.T.);
#684=EDGE_CURVE('',#568,#569,#234,.T.);
#685=EDGE_CURVE('',#570,#569,#517,.T.);
#686=EDGE_CURVE('',#570,#571,#235,.T.);
#687=EDGE_CURVE('',#571,#572,#236,.T.);
#688=EDGE_CURVE('',#572,#573,#237,.T.);
#689=EDGE_CURVE('',#573,#574,#238,.T.);
#690=EDGE_CURVE('',#574,#575,#239,.T.);
#691=EDGE_CURVE('',#575,#576,#240,.T.);
#692=EDGE_CURVE('',#576,#577,#241,.T.);
#693=EDGE_CURVE('',#577,#578,#242,.T.);
#694=EDGE_CURVE('',#578,#579,#243,.T.);
#695=EDGE_CURVE('',#579,#580,#244,.T.);
#696=EDGE_CURVE('',#580,#581,#245,.T.);
#697=EDGE_CURVE('',#581,#527,#246,.T.);
#698=EDGE_CURVE('',#582,#582,#518,.T.);
#699=EDGE_CURVE('',#583,#584,#519,.T.);
#700=EDGE_CURVE('',#584,#542,#247,.T.);
#701=EDGE_CURVE('',#541,#583,#248,.T.);
#702=EDGE_CURVE('',#540,#585,#249,.T.);
#703=EDGE_CURVE('',#583,#585,#250,.T.);
#704=EDGE_CURVE('',#586,#587,#520,.T.);
#705=EDGE_CURVE('',#587,#570,#251,.T.);
#706=EDGE_CURVE('',#569,#586,#252,.T.);
#707=EDGE_CURVE('',#568,#588,#253,.T.);
#708=EDGE_CURVE('',#586,#588,#254,.T.);
#709=EDGE_CURVE('',#589,#590,#521,.T.);
#710=EDGE_CURVE('',#590,#556,#255,.T.);
#711=EDGE_CURVE('',#555,#589,#256,.T.);
#712=EDGE_CURVE('',#591,#590,#257,.T.);
#713=EDGE_CURVE('',#557,#591,#258,.T.);
#714=EDGE_CURVE('',#592,#592,#522,.T.);
#715=EDGE_CURVE('',#592,#582,#259,.T.);
#716=EDGE_CURVE('',#564,#593,#260,.T.);
#717=EDGE_CURVE('',#594,#593,#261,.T.);
#718=EDGE_CURVE('',#565,#594,#262,.T.);
#719=EDGE_CURVE('',#595,#594,#263,.T.);
#720=EDGE_CURVE('',#566,#595,#264,.T.);
#721=EDGE_CURVE('',#596,#595,#265,.T.);
#722=EDGE_CURVE('',#567,#596,#266,.T.);
#723=EDGE_CURVE('',#588,#596,#267,.T.);
#724=EDGE_CURVE('',#597,#587,#268,.T.);
#725=EDGE_CURVE('',#571,#597,#269,.T.);
#726=EDGE_CURVE('',#598,#597,#270,.T.);
#727=EDGE_CURVE('',#572,#598,#271,.T.);
#728=EDGE_CURVE('',#599,#598,#272,.T.);
#729=EDGE_CURVE('',#573,#599,#273,.T.);
#730=EDGE_CURVE('',#600,#599,#274,.T.);
#731=EDGE_CURVE('',#574,#600,#275,.T.);
#732=EDGE_CURVE('',#601,#600,#276,.T.);
#733=EDGE_CURVE('',#575,#601,#277,.T.);
#734=EDGE_CURVE('',#602,#601,#278,.T.);
#735=EDGE_CURVE('',#576,#602,#279,.T.);
#736=EDGE_CURVE('',#603,#602,#280,.T.);
#737=EDGE_CURVE('',#577,#603,#281,.T.);
#738=EDGE_CURVE('',#604,#603,#282,.T.);
#739=EDGE_CURVE('',#578,#604,#283,.T.);
#740=EDGE_CURVE('',#605,#604,#284,.T.);
#741=EDGE_CURVE('',#579,#605,#285,.T.);
#742=EDGE_CURVE('',#606,#605,#286,.T.);
#743=EDGE_CURVE('',#580,#606,#287,.T.);
#744=EDGE_CURVE('',#607,#606,#288,.T.);
#745=EDGE_CURVE('',#581,#607,#289,.T.);
#746=EDGE_CURVE('',#528,#607,#290,.T.);
#747=EDGE_CURVE('',#608,#524,#291,.T.);
#748=EDGE_CURVE('',#529,#608,#292,.T.);
#749=EDGE_CURVE('',#609,#608,#293,.T.);
#750=EDGE_CURVE('',#530,#609,#294,.T.);
#751=EDGE_CURVE('',#610,#609,#295,.T.);
#752=EDGE_CURVE('',#531,#610,#296,.T.);
#753=EDGE_CURVE('',#611,#610,#297,.T.);
#754=EDGE_CURVE('',#532,#611,#298,.T.);
#755=EDGE_CURVE('',#612,#611,#299,.T.);
#756=EDGE_CURVE('',#533,#612,#300,.T.);
#757=EDGE_CURVE('',#613,#612,#301,.T.);
#758=EDGE_CURVE('',#534,#613,#302,.T.);
#759=EDGE_CURVE('',#614,#613,#303,.T.);
#760=EDGE_CURVE('',#535,#614,#304,.T.);
#761=EDGE_CURVE('',#615,#614,#305,.T.);
#762=EDGE_CURVE('',#536,#615,#306,.T.);
#763=EDGE_CURVE('',#616,#615,#307,.T.);
#764=EDGE_CURVE('',#537,#616,#308,.T.);
#765=EDGE_CURVE('',#617,#616,#309,.T.);
#766=EDGE_CURVE('',#538,#617,#310,.T.);
#767=EDGE_CURVE('',#618,#617,#311,.T.);
#768=EDGE_CURVE('',#539,#618,#312,.T.);
#769=EDGE_CURVE('',#585,#618,#313,.T.);
#770=EDGE_CURVE('',#619,#584,#314,.T.);
#771=EDGE_CURVE('',#543,#619,#315,.T.);
#772=EDGE_CURVE('',#620,#619,#316,.T.);
#773=EDGE_CURVE('',#544,#620,#317,.T.);
#774=EDGE_CURVE('',#621,#620,#318,.T.);
#775=EDGE_CURVE('',#545,#621,#319,.T.);
#776=EDGE_CURVE('',#622,#621,#320,.T.);
#777=EDGE_CURVE('',#546,#622,#321,.T.);
#778=EDGE_CURVE('',#623,#622,#322,.T.);
#779=EDGE_CURVE('',#547,#623,#323,.T.);
#780=EDGE_CURVE('',#624,#623,#324,.T.);
#781=EDGE_CURVE('',#548,#624,#325,.T.);
#782=EDGE_CURVE('',#625,#624,#326,.T.);
#783=EDGE_CURVE('',#549,#625,#327,.T.);
#784=EDGE_CURVE('',#626,#625,#328,.T.);
#785=EDGE_CURVE('',#550,#626,#329,.T.);
#786=EDGE_CURVE('',#627,#626,#330,.T.);
#787=EDGE_CURVE('',#551,#627,#331,.T.);
#788=EDGE_CURVE('',#628,#627,#332,.T.);
#789=EDGE_CURVE('',#552,#628,#333,.T.);
#790=EDGE_CURVE('',#629,#628,#334,.T.);
#791=EDGE_CURVE('',#553,#629,#335,.T.);
#792=EDGE_CURVE('',#630,#629,#336,.T.);
#793=EDGE_CURVE('',#554,#630,#337,.T.);
#794=EDGE_CURVE('',#589,#630,#338,.T.);
#795=EDGE_CURVE('',#631,#591,#339,.T.);
#796=EDGE_CURVE('',#558,#631,#340,.T.);
#797=EDGE_CURVE('',#632,#631,#341,.T.);
#798=EDGE_CURVE('',#559,#632,#342,.T.);
#799=EDGE_CURVE('',#633,#632,#343,.T.);
#800=EDGE_CURVE('',#560,#633,#344,.T.);
#801=EDGE_CURVE('',#634,#633,#345,.T.);
#802=EDGE_CURVE('',#561,#634,#346,.T.);
#803=EDGE_CURVE('',#635,#634,#347,.T.);
#804=EDGE_CURVE('',#562,#635,#348,.T.);
#805=EDGE_CURVE('',#636,#635,#349,.T.);
#806=EDGE_CURVE('',#563,#636,#350,.T.);
#807=EDGE_CURVE('',#593,#636,#351,.T.);
#808=ORIENTED_EDGE('',*,*,#637,.T.);
#809=ORIENTED_EDGE('',*,*,#638,.T.);
#810=ORIENTED_EDGE('',*,*,#639,.T.);
#811=ORIENTED_EDGE('',*,*,#640,.T.);
#812=ORIENTED_EDGE('',*,*,#640,.F.);
#813=ORIENTED_EDGE('',*,*,#641,.F.);
#814=ORIENTED_EDGE('',*,*,#642,.T.);
#815=ORIENTED_EDGE('',*,*,#643,.F.);
#816=ORIENTED_EDGE('',*,*,#639,.F.);
#817=ORIENTED_EDGE('',*,*,#644,.T.);
#818=ORIENTED_EDGE('',*,*,#645,.T.);
#819=ORIENTED_EDGE('',*,*,#646,.T.);
#820=ORIENTED_EDGE('',*,*,#647,.T.);
#821=ORIENTED_EDGE('',*,*,#648,.T.);
#822=ORIENTED_EDGE('',*,*,#649,.T.);
#823=ORIENTED_EDGE('',*,*,#650,.T.);
#824=ORIENTED_EDGE('',*,*,#651,.T.);
#825=ORIENTED_EDGE('',*,*,#652,.T.);
#826=ORIENTED_EDGE('',*,*,#653,.T.);
#827=ORIENTED_EDGE('',*,*,#654,.T.);
#828=ORIENTED_EDGE('',*,*,#655,.T.);
#829=ORIENTED_EDGE('',*,*,#656,.T.);
#830=ORIENTED_EDGE('',*,*,#657,.F.);
#831=ORIENTED_EDGE('',*,*,#658,.T.);
#832=ORIENTED_EDGE('',*,*,#659,.T.);
#833=ORIENTED_EDGE('',*,*,#660,.T.);
#834=ORIENTED_EDGE('',*,*,#661,.T.);
#835=ORIENTED_EDGE('',*,*,#662,.T.);
#836=ORIENTED_EDGE('',*,*,#663,.T.);
#837=ORIENTED_EDGE('',*,*,#664,.T.);
#838=ORIENTED_EDGE('',*,*,#665,.T.);
#839=ORIENTED_EDGE('',*,*,#666,.T.);
#840=ORIENTED_EDGE('',*,*,#667,.T.);
#841=ORIENTED_EDGE('',*,*,#668,.T.);
#842=ORIENTED_EDGE('',*,*,#669,.T.);
#843=ORIENTED_EDGE('',*,*,#670,.T.);
#844=ORIENTED_EDGE('',*,*,#671,.F.);
#845=ORIENTED_EDGE('',*,*,#672,.T.);
#846=ORIENTED_EDGE('',*,*,#673,.T.);
#847=ORIENTED_EDGE('',*,*,#674,.T.);
#848=ORIENTED_EDGE('',*,*,#675,.T.);
#849=ORIENTED_EDGE('',*,*,#676,.T.);
#850=ORIENTED_EDGE('',*,*,#677,.T.);
#851=ORIENTED_EDGE('',*,*,#678,.T.);
#852=ORIENTED_EDGE('',*,*,#679,.T.);
#853=ORIENTED_EDGE('',*,*,#680,.T.);
#854=ORIENTED_EDGE('',*,*,#681,.T.);
#855=ORIENTED_EDGE('',*,*,#682,.T.);
#856=ORIENTED_EDGE('',*,*,#683,.T.);
#857=ORIENTED_EDGE('',*,*,#684,.T.);
#858=ORIENTED_EDGE('',*,*,#685,.F.);
#859=ORIENTED_EDGE('',*,*,#686,.T.);
#860=ORIENTED_EDGE('',*,*,#687,.T.);
#861=ORIENTED_EDGE('',*,*,#688,.T.);
#862=ORIENTED_EDGE('',*,*,#689,.T.);
#863=ORIENTED_EDGE('',*,*,#690,.T.);
#864=ORIENTED_EDGE('',*,*,#691,.T.);
#865=ORIENTED_EDGE('',*,*,#692,.T.);
#866=ORIENTED_EDGE('',*,*,#693,.T.);
#867=ORIENTED_EDGE('',*,*,#694,.T.);
#868=ORIENTED_EDGE('',*,*,#695,.T.);
#869=ORIENTED_EDGE('',*,*,#696,.T.);
#870=ORIENTED_EDGE('',*,*,#697,.T.);
#871=ORIENTED_EDGE('',*,*,#641,.T.);
#872=ORIENTED_EDGE('',*,*,#698,.T.);
#873=ORIENTED_EDGE('',*,*,#699,.T.);
#874=ORIENTED_EDGE('',*,*,#700,.T.);
#875=ORIENTED_EDGE('',*,*,#657,.T.);
#876=ORIENTED_EDGE('',*,*,#701,.T.);
#877=ORIENTED_EDGE('',*,*,#701,.F.);
#878=ORIENTED_EDGE('',*,*,#656,.F.);
#879=ORIENTED_EDGE('',*,*,#702,.T.);
#880=ORIENTED_EDGE('',*,*,#703,.F.);
#881=ORIENTED_EDGE('',*,*,#704,.T.);
#882=ORIENTED_EDGE('',*,*,#705,.T.);
#883=ORIENTED_EDGE('',*,*,#685,.T.);
#884=ORIENTED_EDGE('',*,*,#706,.T.);
#885=ORIENTED_EDGE('',*,*,#706,.F.);
#886=ORIENTED_EDGE('',*,*,#684,.F.);
#887=ORIENTED_EDGE('',*,*,#707,.T.);
#888=ORIENTED_EDGE('',*,*,#708,.F.);
#889=ORIENTED_EDGE('',*,*,#709,.T.);
#890=ORIENTED_EDGE('',*,*,#710,.T.);
#891=ORIENTED_EDGE('',*,*,#671,.T.);
#892=ORIENTED_EDGE('',*,*,#711,.T.);
#893=ORIENTED_EDGE('',*,*,#710,.F.);
#894=ORIENTED_EDGE('',*,*,#712,.F.);
#895=ORIENTED_EDGE('',*,*,#713,.F.);
#896=ORIENTED_EDGE('',*,*,#672,.F.);
#897=ORIENTED_EDGE('',*,*,#714,.F.);
#898=ORIENTED_EDGE('',*,*,#715,.T.);
#899=ORIENTED_EDGE('',*,*,#698,.F.);
#900=ORIENTED_EDGE('',*,*,#715,.F.);
#901=ORIENTED_EDGE('',*,*,#680,.F.);
#902=ORIENTED_EDGE('',*,*,#716,.T.);
#903=ORIENTED_EDGE('',*,*,#717,.F.);
#904=ORIENTED_EDGE('',*,*,#718,.F.);
#905=ORIENTED_EDGE('',*,*,#681,.F.);
#906=ORIENTED_EDGE('',*,*,#718,.T.);
#907=ORIENTED_EDGE('',*,*,#719,.F.);
#908=ORIENTED_EDGE('',*,*,#720,.F.);
#909=ORIENTED_EDGE('',*,*,#682,.F.);
#910=ORIENTED_EDGE('',*,*,#720,.T.);
#911=ORIENTED_EDGE('',*,*,#721,.F.);
#912=ORIENTED_EDGE('',*,*,#722,.F.);
#913=ORIENTED_EDGE('',*,*,#683,.F.);
#914=ORIENTED_EDGE('',*,*,#722,.T.);
#915=ORIENTED_EDGE('',*,*,#723,.F.);
#916=ORIENTED_EDGE('',*,*,#707,.F.);
#917=ORIENTED_EDGE('',*,*,#705,.F.);
#918=ORIENTED_EDGE('',*,*,#724,.F.);
#919=ORIENTED_EDGE('',*,*,#725,.F.);
#920=ORIENTED_EDGE('',*,*,#686,.F.);
#921=ORIENTED_EDGE('',*,*,#687,.F.);
#922=ORIENTED_EDGE('',*,*,#725,.T.);
#923=ORIENTED_EDGE('',*,*,#726,.F.);
#924=ORIENTED_EDGE('',*,*,#727,.F.);
#925=ORIENTED_EDGE('',*,*,#688,.F.);
#926=ORIENTED_EDGE('',*,*,#727,.T.);
#927=ORIENTED_EDGE('',*,*,#728,.F.);
#928=ORIENTED_EDGE('',*,*,#729,.F.);
#929=ORIENTED_EDGE('',*,*,#689,.F.);
#930=ORIENTED_EDGE('',*,*,#729,.T.);
#931=ORIENTED_EDGE('',*,*,#730,.F.);
#932=ORIENTED_EDGE('',*,*,#731,.F.);
#933=ORIENTED_EDGE('',*,*,#690,.F.);
#934=ORIENTED_EDGE('',*,*,#731,.T.);
#935=ORIENTED_EDGE('',*,*,#732,.F.);
#936=ORIENTED_EDGE('',*,*,#733,.F.);
#937=ORIENTED_EDGE('',*,*,#691,.F.);
#938=ORIENTED_EDGE('',*,*,#733,.T.);
#939=ORIENTED_EDGE('',*,*,#734,.F.);
#940=ORIENTED_EDGE('',*,*,#735,.F.);
#941=ORIENTED_EDGE('',*,*,#692,.F.);
#942=ORIENTED_EDGE('',*,*,#735,.T.);
#943=ORIENTED_EDGE('',*,*,#736,.F.);
#944=ORIENTED_EDGE('',*,*,#737,.F.);
#945=ORIENTED_EDGE('',*,*,#693,.F.);
#946=ORIENTED_EDGE('',*,*,#737,.T.);
#947=ORIENTED_EDGE('',*,*,#738,.F.);
#948=ORIENTED_EDGE('',*,*,#739,.F.);
#949=ORIENTED_EDGE('',*,*,#694,.F.);
#950=ORIENTED_EDGE('',*,*,#739,.T.);
#951=ORIENTED_EDGE('',*,*,#740,.F.);
#952=ORIENTED_EDGE('',*,*,#741,.F.);
#953=ORIENTED_EDGE('',*,*,#695,.F.);
#954=ORIENTED_EDGE('',*,*,#741,.T.);
#955=ORIENTED_EDGE('',*,*,#742,.F.);
#956=ORIENTED_EDGE('',*,*,#743,.F.);
#957=ORIENTED_EDGE('',*,*,#696,.F.);
#958=ORIENTED_EDGE('',*,*,#743,.T.);
#959=ORIENTED_EDGE('',*,*,#744,.F.);
#960=ORIENTED_EDGE('',*,*,#745,.F.);
#961=ORIENTED_EDGE('',*,*,#697,.F.);
#962=ORIENTED_EDGE('',*,*,#745,.T.);
#963=ORIENTED_EDGE('',*,*,#746,.F.);
#964=ORIENTED_EDGE('',*,*,#642,.F.);
#965=ORIENTED_EDGE('',*,*,#638,.F.);
#966=ORIENTED_EDGE('',*,*,#747,.F.);
#967=ORIENTED_EDGE('',*,*,#748,.F.);
#968=ORIENTED_EDGE('',*,*,#644,.F.);
#969=ORIENTED_EDGE('',*,*,#645,.F.);
#970=ORIENTED_EDGE('',*,*,#748,.T.);
#971=ORIENTED_EDGE('',*,*,#749,.F.);
#972=ORIENTED_EDGE('',*,*,#750,.F.);
#973=ORIENTED_EDGE('',*,*,#646,.F.);
#974=ORIENTED_EDGE('',*,*,#750,.T.);
#975=ORIENTED_EDGE('',*,*,#751,.F.);
#976=ORIENTED_EDGE('',*,*,#752,.F.);
#977=ORIENTED_EDGE('',*,*,#647,.F.);
#978=ORIENTED_EDGE('',*,*,#752,.T.);
#979=ORIENTED_EDGE('',*,*,#753,.F.);
#980=ORIENTED_EDGE('',*,*,#754,.F.);
#981=ORIENTED_EDGE('',*,*,#648,.F.);
#982=ORIENTED_EDGE('',*,*,#754,.T.);
#983=ORIENTED_EDGE('',*,*,#755,.F.);
#984=ORIENTED_EDGE('',*,*,#756,.F.);
#985=ORIENTED_EDGE('',*,*,#649,.F.);
#986=ORIENTED_EDGE('',*,*,#756,.T.);
#987=ORIENTED_EDGE('',*,*,#757,.F.);
#988=ORIENTED_EDGE('',*,*,#758,.F.);
#989=ORIENTED_EDGE('',*,*,#650,.F.);
#990=ORIENTED_EDGE('',*,*,#758,.T.);
#991=ORIENTED_EDGE('',*,*,#759,.F.);
#992=ORIENTED_EDGE('',*,*,#760,.F.);
#993=ORIENTED_EDGE('',*,*,#651,.F.);
#994=ORIENTED_EDGE('',*,*,#760,.T.);
#995=ORIENTED_EDGE('',*,*,#761,.F.);
#996=ORIENTED_EDGE('',*,*,#762,.F.);
#997=ORIENTED_EDGE('',*,*,#652,.F.);
#998=ORIENTED_EDGE('',*,*,#762,.T.);
#999=ORIENTED_EDGE('',*,*,#763,.F.);
#1000=ORIENTED_EDGE('',*,*,#764,.F.);
#1001=ORIENTED_EDGE('',*,*,#653,.F.);
#1002=ORIENTED_EDGE('',*,*,#764,.T.);
#1003=ORIENTED_EDGE('',*,*,#765,.F.);
#1004=ORIENTED_EDGE('',*,*,#766,.F.);
#1005=ORIENTED_EDGE('',*,*,#654,.F.);
#1006=ORIENTED_EDGE('',*,*,#766,.T.);
#1007=ORIENTED_EDGE('',*,*,#767,.F.);
#1008=ORIENTED_EDGE('',*,*,#768,.F.);
#1009=ORIENTED_EDGE('',*,*,#655,.F.);
#1010=ORIENTED_EDGE('',*,*,#768,.T.);
#1011=ORIENTED_EDGE('',*,*,#769,.F.);
#1012=ORIENTED_EDGE('',*,*,#702,.F.);
#1013=ORIENTED_EDGE('',*,*,#700,.F.);
#1014=ORIENTED_EDGE('',*,*,#770,.F.);
#1015=ORIENTED_EDGE('',*,*,#771,.F.);
#1016=ORIENTED_EDGE('',*,*,#658,.F.);
#1017=ORIENTED_EDGE('',*,*,#659,.F.);
#1018=ORIENTED_EDGE('',*,*,#771,.T.);
#1019=ORIENTED_EDGE('',*,*,#772,.F.);
#1020=ORIENTED_EDGE('',*,*,#773,.F.);
#1021=ORIENTED_EDGE('',*,*,#660,.F.);
#1022=ORIENTED_EDGE('',*,*,#773,.T.);
#1023=ORIENTED_EDGE('',*,*,#774,.F.);
#1024=ORIENTED_EDGE('',*,*,#775,.F.);
#1025=ORIENTED_EDGE('',*,*,#661,.F.);
#1026=ORIENTED_EDGE('',*,*,#775,.T.);
#1027=ORIENTED_EDGE('',*,*,#776,.F.);
#1028=ORIENTED_EDGE('',*,*,#777,.F.);
#1029=ORIENTED_EDGE('',*,*,#662,.F.);
#1030=ORIENTED_EDGE('',*,*,#777,.T.);
#1031=ORIENTED_EDGE('',*,*,#778,.F.);
#1032=ORIENTED_EDGE('',*,*,#779,.F.);
#1033=ORIENTED_EDGE('',*,*,#663,.F.);
#1034=ORIENTED_EDGE('',*,*,#779,.T.);
#1035=ORIENTED_EDGE('',*,*,#780,.F.);
#1036=ORIENTED_EDGE('',*,*,#781,.F.);
#1037=ORIENTED_EDGE('',*,*,#664,.F.);
#1038=ORIENTED_EDGE('',*,*,#781,.T.);
#1039=ORIENTED_EDGE('',*,*,#782,.F.);
#1040=ORIENTED_EDGE('',*,*,#783,.F.);
#1041=ORIENTED_EDGE('',*,*,#665,.F.);
#1042=ORIENTED_EDGE('',*,*,#783,.T.);
#1043=ORIENTED_EDGE('',*,*,#784,.F.);
#1044=ORIENTED_EDGE('',*,*,#785,.F.);
#1045=ORIENTED_EDGE('',*,*,#666,.F.);
#1046=ORIENTED_EDGE('',*,*,#785,.T.);
#1047=ORIENTED_EDGE('',*,*,#786,.F.);
#1048=ORIENTED_EDGE('',*,*,#787,.F.);
#1049=ORIENTED_EDGE('',*,*,#667,.F.);
#1050=ORIENTED_EDGE('',*,*,#787,.T.);
#1051=ORIENTED_EDGE('',*,*,#788,.F.);
#1052=ORIENTED_EDGE('',*,*,#789,.F.);
#1053=ORIENTED_EDGE('',*,*,#668,.F.);
#1054=ORIENTED_EDGE('',*,*,#789,.T.);
#1055=ORIENTED_EDGE('',*,*,#790,.F.);
#1056=ORIENTED_EDGE('',*,*,#791,.F.);
#1057=ORIENTED_EDGE('',*,*,#669,.F.);
#1058=ORIENTED_EDGE('',*,*,#791,.T.);
#1059=ORIENTED_EDGE('',*,*,#792,.F.);
#1060=ORIENTED_EDGE('',*,*,#793,.F.);
#1061=ORIENTED_EDGE('',*,*,#711,.F.);
#1062=ORIENTED_EDGE('',*,*,#670,.F.);
#1063=ORIENTED_EDGE('',*,*,#793,.T.);
#1064=ORIENTED_EDGE('',*,*,#794,.F.);
#1065=ORIENTED_EDGE('',*,*,#673,.F.);
#1066=ORIENTED_EDGE('',*,*,#713,.T.);
#1067=ORIENTED_EDGE('',*,*,#795,.F.);
#1068=ORIENTED_EDGE('',*,*,#796,.F.);
#1069=ORIENTED_EDGE('',*,*,#674,.F.);
#1070=ORIENTED_EDGE('',*,*,#796,.T.);
#1071=ORIENTED_EDGE('',*,*,#797,.F.);
#1072=ORIENTED_EDGE('',*,*,#798,.F.);
#1073=ORIENTED_EDGE('',*,*,#675,.F.);
#1074=ORIENTED_EDGE('',*,*,#798,.T.);
#1075=ORIENTED_EDGE('',*,*,#799,.F.);
#1076=ORIENTED_EDGE('',*,*,#800,.F.);
#1077=ORIENTED_EDGE('',*,*,#676,.F.);
#1078=ORIENTED_EDGE('',*,*,#800,.T.);
#1079=ORIENTED_EDGE('',*,*,#801,.F.);
#1080=ORIENTED_EDGE('',*,*,#802,.F.);
#1081=ORIENTED_EDGE('',*,*,#677,.F.);
#1082=ORIENTED_EDGE('',*,*,#802,.T.);
#1083=ORIENTED_EDGE('',*,*,#803,.F.);
#1084=ORIENTED_EDGE('',*,*,#804,.F.);
#1085=ORIENTED_EDGE('',*,*,#678,.F.);
#1086=ORIENTED_EDGE('',*,*,#804,.T.);
#1087=ORIENTED_EDGE('',*,*,#805,.F.);
#1088=ORIENTED_EDGE('',*,*,#806,.F.);
#1089=ORIENTED_EDGE('',*,*,#679,.F.);
#1090=ORIENTED_EDGE('',*,*,#806,.T.);
#1091=ORIENTED_EDGE('',*,*,#807,.F.);
#1092=ORIENTED_EDGE('',*,*,#716,.F.);
#1093=ORIENTED_EDGE('',*,*,#637,.F.);
#1094=ORIENTED_EDGE('',*,*,#643,.T.);
#1095=ORIENTED_EDGE('',*,*,#746,.T.);
#1096=ORIENTED_EDGE('',*,*,#744,.T.);
#1097=ORIENTED_EDGE('',*,*,#742,.T.);
#1098=ORIENTED_EDGE('',*,*,#740,.T.);
#1099=ORIENTED_EDGE('',*,*,#738,.T.);
#1100=ORIENTED_EDGE('',*,*,#736,.T.);
#1101=ORIENTED_EDGE('',*,*,#734,.T.);
#1102=ORIENTED_EDGE('',*,*,#732,.T.);
#1103=ORIENTED_EDGE('',*,*,#730,.T.);
#1104=ORIENTED_EDGE('',*,*,#728,.T.);
#1105=ORIENTED_EDGE('',*,*,#726,.T.);
#1106=ORIENTED_EDGE('',*,*,#724,.T.);
#1107=ORIENTED_EDGE('',*,*,#704,.F.);
#1108=ORIENTED_EDGE('',*,*,#708,.T.);
#1109=ORIENTED_EDGE('',*,*,#723,.T.);
#1110=ORIENTED_EDGE('',*,*,#721,.T.);
#1111=ORIENTED_EDGE('',*,*,#719,.T.);
#1112=ORIENTED_EDGE('',*,*,#717,.T.);
#1113=ORIENTED_EDGE('',*,*,#807,.T.);
#1114=ORIENTED_EDGE('',*,*,#805,.T.);
#1115=ORIENTED_EDGE('',*,*,#803,.T.);
#1116=ORIENTED_EDGE('',*,*,#801,.T.);
#1117=ORIENTED_EDGE('',*,*,#799,.T.);
#1118=ORIENTED_EDGE('',*,*,#797,.T.);
#1119=ORIENTED_EDGE('',*,*,#795,.T.);
#1120=ORIENTED_EDGE('',*,*,#712,.T.);
#1121=ORIENTED_EDGE('',*,*,#709,.F.);
#1122=ORIENTED_EDGE('',*,*,#794,.T.);
#1123=ORIENTED_EDGE('',*,*,#792,.T.);
#1124=ORIENTED_EDGE('',*,*,#790,.T.);
#1125=ORIENTED_EDGE('',*,*,#788,.T.);
#1126=ORIENTED_EDGE('',*,*,#786,.T.);
#1127=ORIENTED_EDGE('',*,*,#784,.T.);
#1128=ORIENTED_EDGE('',*,*,#782,.T.);
#1129=ORIENTED_EDGE('',*,*,#780,.T.);
#1130=ORIENTED_EDGE('',*,*,#778,.T.);
#1131=ORIENTED_EDGE('',*,*,#776,.T.);
#1132=ORIENTED_EDGE('',*,*,#774,.T.);
#1133=ORIENTED_EDGE('',*,*,#772,.T.);
#1134=ORIENTED_EDGE('',*,*,#770,.T.);
#1135=ORIENTED_EDGE('',*,*,#699,.F.);
#1136=ORIENTED_EDGE('',*,*,#703,.T.);
#1137=ORIENTED_EDGE('',*,*,#769,.T.);
#1138=ORIENTED_EDGE('',*,*,#767,.T.);
#1139=ORIENTED_EDGE('',*,*,#765,.T.);
#1140=ORIENTED_EDGE('',*,*,#763,.T.);
#1141=ORIENTED_EDGE('',*,*,#761,.T.);
#1142=ORIENTED_EDGE('',*,*,#759,.T.);
#1143=ORIENTED_EDGE('',*,*,#757,.T.);
#1144=ORIENTED_EDGE('',*,*,#755,.T.);
#1145=ORIENTED_EDGE('',*,*,#753,.T.);
#1146=ORIENTED_EDGE('',*,*,#751,.T.);
#1147=ORIENTED_EDGE('',*,*,#749,.T.);
#1148=ORIENTED_EDGE('',*,*,#747,.T.);
#1149=ORIENTED_EDGE('',*,*,#714,.T.);
#1150=CYLINDRICAL_SURFACE('',#1234,0.5);
#1151=CYLINDRICAL_SURFACE('',#1243,0.5);
#1152=CYLINDRICAL_SURFACE('',#1246,0.5);
#1153=CYLINDRICAL_SURFACE('',#1249,0.5);
#1154=CYLINDRICAL_SURFACE('',#1252,2.1);
#1155=ADVANCED_FACE('',(#71),#1150,.T.);
#1156=ADVANCED_FACE('',(#72),#17,.T.);
#1157=ADVANCED_FACE('',(#73,#15),#18,.T.);
#1158=ADVANCED_FACE('',(#74),#1151,.T.);
#1159=ADVANCED_FACE('',(#75),#19,.T.);
#1160=ADVANCED_FACE('',(#76),#1152,.T.);
#1161=ADVANCED_FACE('',(#77),#20,.T.);
#1162=ADVANCED_FACE('',(#78),#1153,.T.);
#1163=ADVANCED_FACE('',(#79),#21,.T.);
#1164=ADVANCED_FACE('',(#80),#1154,.F.);
#1165=ADVANCED_FACE('',(#81),#22,.T.);
#1166=ADVANCED_FACE('',(#82),#23,.T.);
#1167=ADVANCED_FACE('',(#83),#24,.T.);
#1168=ADVANCED_FACE('',(#84),#25,.T.);
#1169=ADVANCED_FACE('',(#85),#26,.T.);
#1170=ADVANCED_FACE('',(#86),#27,.T.);
#1171=ADVANCED_FACE('',(#87),#28,.T.);
#1172=ADVANCED_FACE('',(#88),#29,.T.);
#1173=ADVANCED_FACE('',(#89),#30,.T.);
#1174=ADVANCED_FACE('',(#90),#31,.T.);
#1175=ADVANCED_FACE('',(#91),#32,.T.);
#1176=ADVANCED_FACE('',(#92),#33,.T.);
#1177=ADVANCED_FACE('',(#93),#34,.T.);
#1178=ADVANCED_FACE('',(#94),#35,.T.);
#1179=ADVANCED_FACE('',(#95),#36,.T.);
#1180=ADVANCED_FACE('',(#96),#37,.T.);
#1181=ADVANCED_FACE('',(#97),#38,.T.);
#1182=ADVANCED_FACE('',(#98),#39,.T.);
#1183=ADVANCED_FACE('',(#99),#40,.T.);
#1184=ADVANCED_FACE('',(#100),#41,.T.);
#1185=ADVANCED_FACE('',(#101),#42,.T.);
#1186=ADVANCED_FACE('',(#102),#43,.T.);
#1187=ADVANCED_FACE('',(#103),#44,.T.);
#1188=ADVANCED_FACE('',(#104),#45,.T.);
#1189=ADVANCED_FACE('',(#105),#46,.T.);
#1190=ADVANCED_FACE('',(#106),#47,.T.);
#1191=ADVANCED_FACE('',(#107),#48,.T.);
#1192=ADVANCED_FACE('',(#108),#49,.T.);
#1193=ADVANCED_FACE('',(#109),#50,.T.);
#1194=ADVANCED_FACE('',(#110),#51,.T.);
#1195=ADVANCED_FACE('',(#111),#52,.T.);
#1196=ADVANCED_FACE('',(#112),#53,.T.);
#1197=ADVANCED_FACE('',(#113),#54,.T.);
#1198=ADVANCED_FACE('',(#114),#55,.T.);
#1199=ADVANCED_FACE('',(#115),#56,.T.);
#1200=ADVANCED_FACE('',(#116),#57,.T.);
#1201=ADVANCED_FACE('',(#117),#58,.T.);
#1202=ADVANCED_FACE('',(#118),#59,.T.);
#1203=ADVANCED_FACE('',(#119),#60,.T.);
#1204=ADVANCED_FACE('',(#120),#61,.T.);
#1205=ADVANCED_FACE('',(#121),#62,.T.);
#1206=ADVANCED_FACE('',(#122),#63,.T.);
#1207=ADVANCED_FACE('',(#123),#64,.T.);
#1208=ADVANCED_FACE('',(#124),#65,.T.);
#1209=ADVANCED_FACE('',(#125),#66,.T.);
#1210=ADVANCED_FACE('',(#126),#67,.T.);
#1211=ADVANCED_FACE('',(#127),#68,.T.);
#1212=ADVANCED_FACE('',(#128),#69,.T.);
#1213=ADVANCED_FACE('',(#129,#16),#70,.F.);
#1214=CLOSED_SHELL('',(#1155,#1156,#1157,#1158,#1159,#1160,#1161,#1162,
#1163,#1164,#1165,#1166,#1167,#1168,#1169,#1170,#1171,#1172,#1173,#1174,
#1175,#1176,#1177,#1178,#1179,#1180,#1181,#1182,#1183,#1184,#1185,#1186,
#1187,#1188,#1189,#1190,#1191,#1192,#1193,#1194,#1195,#1196,#1197,#1198,
#1199,#1200,#1201,#1202,#1203,#1204,#1205,#1206,#1207,#1208,#1209,#1210,
#1211,#1212,#1213));
#1215=DERIVED_UNIT_ELEMENT(#1217,1.);
#1216=DERIVED_UNIT_ELEMENT(#1954,3.);
#1217=(
MASS_UNIT()
NAMED_UNIT(*)
SI_UNIT($,.GRAM.)
);
#1218=DERIVED_UNIT((#1215,#1216));
#1219=MEASURE_REPRESENTATION_ITEM('density measure',
POSITIVE_RATIO_MEASURE(2.7),#1218);
#1220=PROPERTY_DEFINITION_REPRESENTATION(#1225,#1222);
#1221=PROPERTY_DEFINITION_REPRESENTATION(#1226,#1223);
#1222=REPRESENTATION('material name',(#1224),#1951);
#1223=REPRESENTATION('density',(#1219),#1951);
#1224=DESCRIPTIVE_REPRESENTATION_ITEM('Aluminio 6061','Aluminio 6061');
#1225=PROPERTY_DEFINITION('material property','material name',#1961);
#1226=PROPERTY_DEFINITION('material property','density of part',#1961);
#1227=DATE_TIME_ROLE('creation_date');
#1228=APPLIED_DATE_AND_TIME_ASSIGNMENT(#1229,#1227,(#1961));
#1229=DATE_AND_TIME(#1230,#1231);
#1230=CALENDAR_DATE(2021,12,2);
#1231=LOCAL_TIME(0,0,0.,#1232);
#1232=COORDINATED_UNIVERSAL_TIME_OFFSET(0,0,.BEHIND.);
#1233=AXIS2_PLACEMENT_3D('placement',#1604,#1303,#1304);
#1234=AXIS2_PLACEMENT_3D('',#1605,#1305,#1306);
#1235=AXIS2_PLACEMENT_3D('',#1608,#1307,#1308);
#1236=AXIS2_PLACEMENT_3D('',#1612,#1310,#1311);
#1237=AXIS2_PLACEMENT_3D('',#1614,#1313,#1314);
#1238=AXIS2_PLACEMENT_3D('',#1620,#1318,#1319);
#1239=AXIS2_PLACEMENT_3D('',#1648,#1333,#1334);
#1240=AXIS2_PLACEMENT_3D('',#1676,#1348,#1349);
#1241=AXIS2_PLACEMENT_3D('',#1704,#1363,#1364);
#1242=AXIS2_PLACEMENT_3D('',#1729,#1377,#1378);
#1243=AXIS2_PLACEMENT_3D('',#1730,#1379,#1380);
#1244=AXIS2_PLACEMENT_3D('',#1733,#1381,#1382);
#1245=AXIS2_PLACEMENT_3D('',#1736,#1385,#1386);
#1246=AXIS2_PLACEMENT_3D('',#1740,#1389,#1390);
#1247=AXIS2_PLACEMENT_3D('',#1743,#1391,#1392);
#1248=AXIS2_PLACEMENT_3D('',#1746,#1395,#1396);
#1249=AXIS2_PLACEMENT_3D('',#1750,#1399,#1400);
#1250=AXIS2_PLACEMENT_3D('',#1753,#1401,#1402);
#1251=AXIS2_PLACEMENT_3D('',#1756,#1405,#1406);
#1252=AXIS2_PLACEMENT_3D('',#1760,#1409,#1410);
#1253=AXIS2_PLACEMENT_3D('',#1762,#1411,#1412);
#1254=AXIS2_PLACEMENT_3D('',#1764,#1414,#1415);
#1255=AXIS2_PLACEMENT_3D('',#1770,#1419,#1420);
#1256=AXIS2_PLACEMENT_3D('',#1774,#1423,#1424);
#1257=AXIS2_PLACEMENT_3D('',#1778,#1427,#1428);
#1258=AXIS2_PLACEMENT_3D('',#1780,#1430,#1431);
#1259=AXIS2_PLACEMENT_3D('',#1784,#1434,#1435);
#1260=AXIS2_PLACEMENT_3D('',#1788,#1438,#1439);
#1261=AXIS2_PLACEMENT_3D('',#1792,#1442,#1443);
#1262=AXIS2_PLACEMENT_3D('',#1796,#1446,#1447);
#1263=AXIS2_PLACEMENT_3D('',#1800,#1450,#1451);
#1264=AXIS2_PLACEMENT_3D('',#1804,#1454,#1455);
#1265=AXIS2_PLACEMENT_3D('',#1808,#1458,#1459);
#1266=AXIS2_PLACEMENT_3D('',#1812,#1462,#1463);
#1267=AXIS2_PLACEMENT_3D('',#1816,#1466,#1467);
#1268=AXIS2_PLACEMENT_3D('',#1820,#1470,#1471);
#1269=AXIS2_PLACEMENT_3D('',#1824,#1474,#1475);
#1270=AXIS2_PLACEMENT_3D('',#1826,#1477,#1478);
#1271=AXIS2_PLACEMENT_3D('',#1830,#1481,#1482);
#1272=AXIS2_PLACEMENT_3D('',#1834,#1485,#1486);
#1273=AXIS2_PLACEMENT_3D('',#1838,#1489,#1490);
#1274=AXIS2_PLACEMENT_3D('',#1842,#1493,#1494);
#1275=AXIS2_PLACEMENT_3D('',#1846,#1497,#1498);
#1276=AXIS2_PLACEMENT_3D('',#1850,#1501,#1502);
#1277=AXIS2_PLACEMENT_3D('',#1854,#1505,#1506);
#1278=AXIS2_PLACEMENT_3D('',#1858,#1509,#1510);
#1279=AXIS2_PLACEMENT_3D('',#1862,#1513,#1514);
#1280=AXIS2_PLACEMENT_3D('',#1866,#1517,#1518);
#1281=AXIS2_PLACEMENT_3D('',#1870,#1521,#1522);
#1282=AXIS2_PLACEMENT_3D('',#1872,#1524,#1525);
#1283=AXIS2_PLACEMENT_3D('',#1876,#1528,#1529);
#1284=AXIS2_PLACEMENT_3D('',#1880,#1532,#1533);
#1285=AXIS2_PLACEMENT_3D('',#1884,#1536,#1537);
#1286=AXIS2_PLACEMENT_3D('',#1888,#1540,#1541);
#1287=AXIS2_PLACEMENT_3D('',#1892,#1544,#1545);
#1288=AXIS2_PLACEMENT_3D('',#1896,#1548,#1549);
#1289=AXIS2_PLACEMENT_3D('',#1900,#1552,#1553);
#1290=AXIS2_PLACEMENT_3D('',#1904,#1556,#1557);
#1291=AXIS2_PLACEMENT_3D('',#1908,#1560,#1561);
#1292=AXIS2_PLACEMENT_3D('',#1912,#1564,#1565);
#1293=AXIS2_PLACEMENT_3D('',#1916,#1568,#1569);
#1294=AXIS2_PLACEMENT_3D('',#1920,#1572,#1573);
#1295=AXIS2_PLACEMENT_3D('',#1922,#1575,#1576);
#1296=AXIS2_PLACEMENT_3D('',#1926,#1579,#1580);
#1297=AXIS2_PLACEMENT_3D('',#1930,#1583,#1584);
#1298=AXIS2_PLACEMENT_3D('',#1934,#1587,#1588);
#1299=AXIS2_PLACEMENT_3D('',#1938,#1591,#1592);
#1300=AXIS2_PLACEMENT_3D('',#1942,#1595,#1596);
#1301=AXIS2_PLACEMENT_3D('',#1946,#1599,#1600);
#1302=AXIS2_PLACEMENT_3D('',#1948,#1602,#1603);
#1303=DIRECTION('axis',(0.,0.,1.));
#1304=DIRECTION('refdir',(1.,0.,0.));
#1305=DIRECTION('center_axis',(0.,0.,-1.));
#1306=DIRECTION('ref_axis',(-0.707106781186548,-0.707106781186548,0.));
#1307=DIRECTION('center_axis',(0.,0.,1.));
#1308=DIRECTION('ref_axis',(-0.707106781186548,-0.707106781186548,0.));
#1309=DIRECTION('',(0.,0.,1.));
#1310=DIRECTION('center_axis',(0.,0.,-1.));
#1311=DIRECTION('ref_axis',(-0.707106781186548,-0.707106781186548,0.));
#1312=DIRECTION('',(0.,0.,-1.));
#1313=DIRECTION('center_axis',(-1.,0.,0.));
#1314=DIRECTION('ref_axis',(0.,1.,0.));
#1315=DIRECTION('',(0.,-1.,0.));
#1316=DIRECTION('',(0.,0.,-1.));
#1317=DIRECTION('',(0.,1.,0.));
#1318=DIRECTION('center_axis',(0.,0.,1.));
#1319=DIRECTION('ref_axis',(1.,0.,0.));
#1320=DIRECTION('',(1.,4.09676392850611E-16,0.));
#1321=DIRECTION('',(0.707106781186548,0.707106781186547,0.));
#1322=DIRECTION('',(0.,1.,0.));
#1323=DIRECTION('',(-1.,0.,0.));
#1324=DIRECTION('',(0.,1.,0.));
#1325=DIRECTION('',(0.707106781186549,0.707106781186546,0.));
#1326=DIRECTION('',(1.,0.,0.));
#1327=DIRECTION('',(0.707106781186549,-0.707106781186546,0.));
#1328=DIRECTION('',(0.,-1.,0.));
#1329=DIRECTION('',(-1.,0.,0.));
#1330=DIRECTION('',(0.,-1.,0.));
#1331=DIRECTION('',(0.707106781186548,-0.707106781186547,0.));
#1332=DIRECTION('',(1.,-4.09676392850611E-16,0.));
#1333=DIRECTION('center_axis',(0.,0.,-1.));
#1334=DIRECTION('ref_axis',(0.707106781186548,-0.707106781186548,0.));
#1335=DIRECTION('',(0.,1.,0.));
#1336=DIRECTION('',(-0.707106781186545,0.70710678118655,0.));
#1337=DIRECTION('',(-1.,0.,0.));
#1338=DIRECTION('',(0.,-1.,0.));
#1339=DIRECTION('',(-1.,0.,0.));
#1340=DIRECTION('',(-0.707106781186549,0.707106781186546,0.));
#1341=DIRECTION('',(0.,1.,0.));
#1342=DIRECTION('',(0.707106781186549,0.707106781186546,0.));
#1343=DIRECTION('',(1.,0.,0.));
#1344=DIRECTION('',(0.00547274176646741,-0.999985024436645,0.));
#1345=DIRECTION('',(1.,0.,0.));
#1346=DIRECTION('',(0.707106781186547,0.707106781186548,0.));
#1347=DIRECTION('',(0.,1.,0.));
#1348=DIRECTION('center_axis',(0.,0.,-1.));
#1349=DIRECTION('ref_axis',(0.707106781186548,0.707106781186548,0.));
#1350=DIRECTION('',(-1.,-4.09676392850611E-16,0.));
#1351=DIRECTION('',(-0.707106781186548,-0.707106781186547,0.));
#1352=DIRECTION('',(0.,-1.,0.));
#1353=DIRECTION('',(1.,0.,0.));
#1354=DIRECTION('',(0.,-1.,0.));
#1355=DIRECTION('',(-0.707106781186549,-0.707106781186546,0.));
#1356=DIRECTION('',(-1.,0.,0.));
#1357=DIRECTION('',(-0.707106781186549,0.707106781186546,0.));
#1358=DIRECTION('',(0.,1.,0.));
#1359=DIRECTION('',(1.,0.,0.));
#1360=DIRECTION('',(0.,1.,0.));
#1361=DIRECTION('',(-0.707106781186548,0.707106781186547,0.));
#1362=DIRECTION('',(-1.,0.,0.));
#1363=DIRECTION('center_axis',(0.,0.,-1.));
#1364=DIRECTION('ref_axis',(-0.707106781186548,0.707106781186548,0.));
#1365=DIRECTION('',(0.,-1.,0.));
#1366=DIRECTION('',(0.707106781186545,-0.70710678118655,0.));
#1367=DIRECTION('',(1.,0.,0.));
#1368=DIRECTION('',(0.,1.,0.));
#1369=DIRECTION('',(1.,0.,0.));
#1370=DIRECTION('',(0.707106781186549,-0.707106781186546,0.));
#1371=DIRECTION('',(0.,-1.,0.));
#1372=DIRECTION('',(-0.707106781186549,-0.707106781186546,0.));
#1373=DIRECTION('',(-1.,0.,0.));
#1374=DIRECTION('',(0.,1.,0.));
#1375=DIRECTION('',(-1.,0.,0.));
#1376=DIRECTION('',(-0.707106781186545,-0.70710678118655,0.));
#1377=DIRECTION('center_axis',(0.,0.,-1.));
#1378=DIRECTION('ref_axis',(-1.,0.,0.));
#1379=DIRECTION('center_axis',(0.,0.,-1.));
#1380=DIRECTION('ref_axis',(0.707106781186548,-0.707106781186548,0.));
#1381=DIRECTION('center_axis',(0.,0.,1.));
#1382=DIRECTION('ref_axis',(0.707106781186548,-0.707106781186548,0.));
#1383=DIRECTION('',(0.,0.,1.));
#1384=DIRECTION('',(0.,0.,-1.));
#1385=DIRECTION('center_axis',(-4.09676392850611E-16,-1.,0.));
#1386=DIRECTION('ref_axis',(-1.,4.09676392850611E-16,0.));
#1387=DIRECTION('',(0.,0.,-1.));
#1388=DIRECTION('',(-1.,4.09676392850611E-16,0.));
#1389=DIRECTION('center_axis',(0.,0.,-1.));
#1390=DIRECTION('ref_axis',(-0.707106781186548,0.707106781186548,0.));
#1391=DIRECTION('center_axis',(0.,0.,1.));
#1392=DIRECTION('ref_axis',(-0.707106781186548,0.707106781186548,0.));
#1393=DIRECTION('',(0.,0.,1.));
#1394=DIRECTION('',(0.,0.,-1.));
#1395=DIRECTION('center_axis',(0.,1.,0.));
#1396=DIRECTION('ref_axis',(1.,0.,0.));
#1397=DIRECTION('',(0.,0.,-1.));
#1398=DIRECTION('',(1.,0.,0.));
#1399=DIRECTION('center_axis',(0.,0.,-1.));
#1400=DIRECTION('ref_axis',(0.707106781186548,0.707106781186548,0.));
#1401=DIRECTION('center_axis',(0.,0.,1.));
#1402=DIRECTION('ref_axis',(0.707106781186548,0.707106781186548,0.));
#1403=DIRECTION('',(0.,0.,1.));
#1404=DIRECTION('',(0.,0.,-1.));
#1405=DIRECTION('center_axis',(-4.09676392850611E-16,1.,0.));
#1406=DIRECTION('ref_axis',(1.,4.09676392850611E-16,0.));
#1407=DIRECTION('',(1.,4.09676392850611E-16,0.));
#1408=DIRECTION('',(0.,0.,-1.));
#1409=DIRECTION('center_axis',(0.,0.,-1.));
#1410=DIRECTION('ref_axis',(-1.,0.,0.));
#1411=DIRECTION('center_axis',(0.,0.,1.));
#1412=DIRECTION('ref_axis',(-1.,0.,0.));
#1413=DIRECTION('',(0.,0.,1.));
#1414=DIRECTION('center_axis',(1.,0.,0.));
#1415=DIRECTION('ref_axis',(0.,-1.,0.));
#1416=DIRECTION('',(0.,0.,-1.));
#1417=DIRECTION('',(0.,-1.,0.));
#1418=DIRECTION('',(0.,0.,-1.));
#1419=DIRECTION('center_axis',(0.,-1.,0.));
#1420=DIRECTION('ref_axis',(-1.,0.,0.));
#1421=DIRECTION('',(-1.,0.,0.));
#1422=DIRECTION('',(0.,0.,-1.));
#1423=DIRECTION('center_axis',(1.,0.,0.));
#1424=DIRECTION('ref_axis',(0.,-1.,0.));
#1425=DIRECTION('',(0.,-1.,0.));
#1426=DIRECTION('',(0.,0.,-1.));
#1427=DIRECTION('center_axis',(0.707106781186547,0.707106781186548,0.));
#1428=DIRECTION('ref_axis',(0.707106781186548,-0.707106781186547,0.));
#1429=DIRECTION('',(0.707106781186548,-0.707106781186547,0.));
#1430=DIRECTION('center_axis',(-1.,0.,0.));
#1431=DIRECTION('ref_axis',(0.,1.,0.));
#1432=DIRECTION('',(0.,1.,0.));
#1433=DIRECTION('',(0.,0.,-1.));
#1434=DIRECTION('center_axis',(-0.70710678118655,-0.707106781186545,0.));
#1435=DIRECTION('ref_axis',(-0.707106781186545,0.70710678118655,0.));
#1436=DIRECTION('',(-0.707106781186545,0.70710678118655,0.));
#1437=DIRECTION('',(0.,0.,-1.));
#1438=DIRECTION('center_axis',(0.,-1.,0.));
#1439=DIRECTION('ref_axis',(-1.,0.,0.));
#1440=DIRECTION('',(-1.,0.,0.));
#1441=DIRECTION('',(0.,0.,-1.));
#1442=DIRECTION('center_axis',(1.,0.,0.));
#1443=DIRECTION('ref_axis',(0.,-1.,0.));
#1444=DIRECTION('',(0.,-1.,0.));
#1445=DIRECTION('',(0.,0.,-1.));
#1446=DIRECTION('center_axis',(0.,-1.,0.));
#1447=DIRECTION('ref_axis',(-1.,0.,0.));
#1448=DIRECTION('',(-1.,0.,0.));
#1449=DIRECTION('',(0.,0.,-1.));
#1450=DIRECTION('center_axis',(-0.707106781186546,-0.707106781186549,0.));
#1451=DIRECTION('ref_axis',(-0.707106781186549,0.707106781186546,0.));
#1452=DIRECTION('',(-0.707106781186549,0.707106781186546,0.));
#1453=DIRECTION('',(0.,0.,-1.));
#1454=DIRECTION('center_axis',(-1.,0.,0.));
#1455=DIRECTION('ref_axis',(0.,1.,0.));
#1456=DIRECTION('',(0.,1.,0.));
#1457=DIRECTION('',(0.,0.,-1.));
#1458=DIRECTION('center_axis',(-0.707106781186546,0.707106781186549,0.));
#1459=DIRECTION('ref_axis',(0.707106781186549,0.707106781186546,0.));
#1460=DIRECTION('',(0.707106781186549,0.707106781186546,0.));
#1461=DIRECTION('',(0.,0.,-1.));
#1462=DIRECTION('center_axis',(0.,1.,0.));
#1463=DIRECTION('ref_axis',(1.,0.,0.));
#1464=DIRECTION('',(1.,0.,0.));
#1465=DIRECTION('',(0.,0.,-1.));
#1466=DIRECTION('center_axis',(1.,0.,0.));
#1467=DIRECTION('ref_axis',(0.,-1.,0.));
#1468=DIRECTION('',(0.,-1.,0.));
#1469=DIRECTION('',(0.,0.,-1.));
#1470=DIRECTION('center_axis',(0.,1.,0.));
#1471=DIRECTION('ref_axis',(1.,0.,0.));
#1472=DIRECTION('',(1.,0.,0.));
#1473=DIRECTION('',(0.,0.,-1.));
#1474=DIRECTION('center_axis',(-0.70710678118655,0.707106781186545,0.));
#1475=DIRECTION('ref_axis',(0.707106781186545,0.70710678118655,0.));
#1476=DIRECTION('',(0.707106781186545,0.70710678118655,0.));
#1477=DIRECTION('center_axis',(4.09676392850611E-16,-1.,0.));
#1478=DIRECTION('ref_axis',(-1.,-4.09676392850611E-16,0.));
#1479=DIRECTION('',(-1.,-4.09676392850611E-16,0.));
#1480=DIRECTION('',(0.,0.,-1.));
#1481=DIRECTION('center_axis',(0.707106781186547,-0.707106781186548,0.));
#1482=DIRECTION('ref_axis',(-0.707106781186548,-0.707106781186547,0.));
#1483=DIRECTION('',(-0.707106781186548,-0.707106781186547,0.));
#1484=DIRECTION('',(0.,0.,-1.));
#1485=DIRECTION('center_axis',(1.,0.,0.));
#1486=DIRECTION('ref_axis',(0.,-1.,0.));
#1487=DIRECTION('',(0.,-1.,0.));
#1488=DIRECTION('',(0.,0.,-1.));
#1489=DIRECTION('center_axis',(0.,1.,0.));
#1490=DIRECTION('ref_axis',(1.,0.,0.));
#1491=DIRECTION('',(1.,0.,0.));
#1492=DIRECTION('',(0.,0.,-1.));
#1493=DIRECTION('center_axis',(1.,0.,0.));
#1494=DIRECTION('ref_axis',(0.,-1.,0.));
#1495=DIRECTION('',(0.,-1.,0.));
#1496=DIRECTION('',(0.,0.,-1.));
#1497=DIRECTION('center_axis',(0.707106781186546,-0.707106781186549,0.));
#1498=DIRECTION('ref_axis',(-0.707106781186549,-0.707106781186546,0.));
#1499=DIRECTION('',(-0.707106781186549,-0.707106781186546,0.));
#1500=DIRECTION('',(0.,0.,-1.));
#1501=DIRECTION('center_axis',(0.,-1.,0.));
#1502=DIRECTION('ref_axis',(-1.,0.,0.));
#1503=DIRECTION('',(-1.,0.,0.));
#1504=DIRECTION('',(0.,0.,-1.));
#1505=DIRECTION('center_axis',(-0.707106781186546,-0.707106781186549,0.));
#1506=DIRECTION('ref_axis',(-0.707106781186549,0.707106781186546,0.));
#1507=DIRECTION('',(-0.707106781186549,0.707106781186546,0.));
#1508=DIRECTION('',(0.,0.,-1.));
#1509=DIRECTION('center_axis',(-1.,0.,0.));
#1510=DIRECTION('ref_axis',(0.,1.,0.));
#1511=DIRECTION('',(0.,1.,0.));
#1512=DIRECTION('',(0.,0.,-1.));
#1513=DIRECTION('center_axis',(0.,1.,0.));
#1514=DIRECTION('ref_axis',(1.,0.,0.));
#1515=DIRECTION('',(1.,0.,0.));
#1516=DIRECTION('',(0.,0.,-1.));
#1517=DIRECTION('center_axis',(-1.,0.,0.));
#1518=DIRECTION('ref_axis',(0.,1.,0.));
#1519=DIRECTION('',(0.,1.,0.));
#1520=DIRECTION('',(0.,0.,-1.));
#1521=DIRECTION('center_axis',(-0.707106781186547,-0.707106781186548,0.));
#1522=DIRECTION('ref_axis',(-0.707106781186548,0.707106781186547,0.));
#1523=DIRECTION('',(-0.707106781186548,0.707106781186547,0.));
#1524=DIRECTION('center_axis',(1.,0.,0.));
#1525=DIRECTION('ref_axis',(0.,-1.,0.));
#1526=DIRECTION('',(0.,-1.,0.));
#1527=DIRECTION('',(0.,0.,-1.));
#1528=DIRECTION('center_axis',(0.70710678118655,0.707106781186545,0.));
#1529=DIRECTION('ref_axis',(0.707106781186545,-0.70710678118655,0.));
#1530=DIRECTION('',(0.707106781186545,-0.70710678118655,0.));
#1531=DIRECTION('',(0.,0.,-1.));
#1532=DIRECTION('center_axis',(0.,1.,0.));
#1533=DIRECTION('ref_axis',(1.,0.,0.));
#1534=DIRECTION('',(1.,0.,0.));
#1535=DIRECTION('',(0.,0.,-1.));
#1536=DIRECTION('center_axis',(-1.,0.,0.));
#1537=DIRECTION('ref_axis',(0.,1.,0.));
#1538=DIRECTION('',(0.,1.,0.));
#1539=DIRECTION('',(0.,0.,-1.));
#1540=DIRECTION('center_axis',(0.,1.,0.));
#1541=DIRECTION('ref_axis',(1.,0.,0.));
#1542=DIRECTION('',(1.,0.,0.));
#1543=DIRECTION('',(0.,0.,-1.));
#1544=DIRECTION('center_axis',(0.707106781186546,0.707106781186549,0.));
#1545=DIRECTION('ref_axis',(0.707106781186549,-0.707106781186546,0.));
#1546=DIRECTION('',(0.707106781186549,-0.707106781186546,0.));
#1547=DIRECTION('',(0.,0.,-1.));
#1548=DIRECTION('center_axis',(1.,0.,0.));
#1549=DIRECTION('ref_axis',(0.,-1.,0.));
#1550=DIRECTION('',(0.,-1.,0.));
#1551=DIRECTION('',(0.,0.,-1.));
#1552=DIRECTION('center_axis',(0.707106781186546,-0.707106781186549,0.));
#1553=DIRECTION('ref_axis',(-0.707106781186549,-0.707106781186546,0.));
#1554=DIRECTION('',(-0.707106781186549,-0.707106781186546,0.));
#1555=DIRECTION('',(0.,0.,-1.));
#1556=DIRECTION('center_axis',(0.,-1.,0.));
#1557=DIRECTION('ref_axis',(-1.,0.,0.));
#1558=DIRECTION('',(-1.,0.,0.));
#1559=DIRECTION('',(0.,0.,-1.));
#1560=DIRECTION('center_axis',(-0.999985024436645,-0.00547274176646741,
0.));
#1561=DIRECTION('ref_axis',(-0.00547274176646741,0.999985024436645,0.));
#1562=DIRECTION('',(-0.00547274176646741,0.999985024436645,0.));
#1563=DIRECTION('',(0.,0.,-1.));
#1564=DIRECTION('center_axis',(0.,-1.,0.));
#1565=DIRECTION('ref_axis',(-1.,0.,0.));
#1566=DIRECTION('',(-1.,0.,0.));
#1567=DIRECTION('',(0.,0.,-1.));
#1568=DIRECTION('center_axis',(0.707106781186548,-0.707106781186547,0.));
#1569=DIRECTION('ref_axis',(-0.707106781186547,-0.707106781186548,0.));
#1570=DIRECTION('',(-0.707106781186547,-0.707106781186548,0.));
#1571=DIRECTION('',(0.,0.,-1.));
#1572=DIRECTION('center_axis',(1.,0.,0.));
#1573=DIRECTION('ref_axis',(0.,-1.,0.));
#1574=DIRECTION('',(0.,-1.,0.));
#1575=DIRECTION('center_axis',(-0.707106781186547,0.707106781186548,0.));
#1576=DIRECTION('ref_axis',(0.707106781186548,0.707106781186547,0.));
#1577=DIRECTION('',(0.707106781186548,0.707106781186547,0.));
#1578=DIRECTION('',(0.,0.,-1.));
#1579=DIRECTION('center_axis',(-1.,0.,0.));
#1580=DIRECTION('ref_axis',(0.,1.,0.));
#1581=DIRECTION('',(0.,1.,0.));
#1582=DIRECTION('',(0.,0.,-1.));
#1583=DIRECTION('center_axis',(0.,-1.,0.));
#1584=DIRECTION('ref_axis',(-1.,0.,0.));
#1585=DIRECTION('',(-1.,0.,0.));
#1586=DIRECTION('',(0.,0.,-1.));
#1587=DIRECTION('center_axis',(-1.,0.,0.));
#1588=DIRECTION('ref_axis',(0.,1.,0.));
#1589=DIRECTION('',(0.,1.,0.));
#1590=DIRECTION('',(0.,0.,-1.));
#1591=DIRECTION('center_axis',(-0.707106781186546,0.707106781186549,0.));
#1592=DIRECTION('ref_axis',(0.707106781186549,0.707106781186546,0.));
#1593=DIRECTION('',(0.707106781186549,0.707106781186546,0.));
#1594=DIRECTION('',(0.,0.,-1.));
#1595=DIRECTION('center_axis',(0.,1.,0.));
#1596=DIRECTION('ref_axis',(1.,0.,0.));
#1597=DIRECTION('',(1.,0.,0.));
#1598=DIRECTION('',(0.,0.,-1.));
#1599=DIRECTION('center_axis',(0.707106781186546,0.707106781186549,0.));
#1600=DIRECTION('ref_axis',(0.707106781186549,-0.707106781186546,0.));
#1601=DIRECTION('',(0.707106781186549,-0.707106781186546,0.));
#1602=DIRECTION('center_axis',(0.,0.,1.));
#1603=DIRECTION('ref_axis',(1.,0.,0.));
#1604=CARTESIAN_POINT('',(0.,0.,0.));
#1605=CARTESIAN_POINT('Origin',(-9.5,-9.5,0.));
#1606=CARTESIAN_POINT('',(-10.,-9.5,-200.));
#1607=CARTESIAN_POINT('',(-9.5,-10.,-200.));
#1608=CARTESIAN_POINT('Origin',(-9.5,-9.5,-200.));
#1609=CARTESIAN_POINT('',(-9.5,-10.,0.));
#1610=CARTESIAN_POINT('',(-9.5,-10.,0.));
#1611=CARTESIAN_POINT('',(-10.,-9.5,0.));
#1612=CARTESIAN_POINT('Origin',(-9.5,-9.5,0.));
#1613=CARTESIAN_POINT('',(-10.,-9.5,0.));
#1614=CARTESIAN_POINT('Origin',(-10.,-10.,0.));
#1615=CARTESIAN_POINT('',(-10.,-4.58,0.));
#1616=CARTESIAN_POINT('',(-10.,-4.58,0.));
#1617=CARTESIAN_POINT('',(-10.,-4.58,-200.));
#1618=CARTESIAN_POINT('',(-10.,-4.58,0.));
#1619=CARTESIAN_POINT('',(-10.,-4.58,-200.));
#1620=CARTESIAN_POINT('Origin',(0.,0.,0.));
#1621=CARTESIAN_POINT('',(-4.58,-10.,0.));
#1622=CARTESIAN_POINT('',(-10.,-10.,0.));
#1623=CARTESIAN_POINT('',(-3.125,-8.545,0.));
#1624=CARTESIAN_POINT('',(-4.58,-10.,0.));
#1625=CARTESIAN_POINT('',(-3.125,-8.195,0.));
#1626=CARTESIAN_POINT('',(-3.125,-8.545,0.));
#1627=CARTESIAN_POINT('',(-5.5,-8.195,0.));
#1628=CARTESIAN_POINT('',(-3.125,-8.195,0.));
#1629=CARTESIAN_POINT('',(-5.5,-6.555,0.));
#1630=CARTESIAN_POINT('',(-5.5,-8.195,0.));
#1631=CARTESIAN_POINT('',(-2.84499999999999,-3.9,0.));
#1632=CARTESIAN_POINT('',(-5.5,-6.555,0.));
#1633=CARTESIAN_POINT('',(2.84499999999999,-3.9,0.));
#1634=CARTESIAN_POINT('',(-2.84499999999999,-3.9,0.));
#1635=CARTESIAN_POINT('',(5.5,-6.555,0.));
#1636=CARTESIAN_POINT('',(2.84499999999999,-3.9,0.));
#1637=CARTESIAN_POINT('',(5.5,-8.195,0.));
#1638=CARTESIAN_POINT('',(5.5,-6.555,0.));
#1639=CARTESIAN_POINT('',(3.125,-8.195,0.));
#1640=CARTESIAN_POINT('',(5.5,-8.195,0.));
#1641=CARTESIAN_POINT('',(3.125,-8.545,0.));
#1642=CARTESIAN_POINT('',(3.125,-8.195,0.));
#1643=CARTESIAN_POINT('',(4.58,-10.,0.));
#1644=CARTESIAN_POINT('',(3.125,-8.545,0.));
#1645=CARTESIAN_POINT('',(9.5,-10.,0.));
#1646=CARTESIAN_POINT('',(4.58,-10.,0.));
#1647=CARTESIAN_POINT('',(10.,-9.5,0.));
#1648=CARTESIAN_POINT('Origin',(9.5,-9.5,0.));
#1649=CARTESIAN_POINT('',(10.,-4.58,0.));
#1650=CARTESIAN_POINT('',(10.,-10.,0.));
#1651=CARTESIAN_POINT('',(8.54500000000001,-3.125,0.));
#1652=CARTESIAN_POINT('',(10.,-4.58,0.));
#1653=CARTESIAN_POINT('',(8.19500000000001,-3.125,0.));
#1654=CARTESIAN_POINT('',(8.54500000000001,-3.125,0.));
#1655=CARTESIAN_POINT('',(8.19500000000001,-5.48867965644036,0.));
#1656=CARTESIAN_POINT('',(8.19500000000001,-3.125,0.));
#1657=CARTESIAN_POINT('',(6.55500000000001,-5.48867965644036,0.));
#1658=CARTESIAN_POINT('',(8.19500000000001,-5.48867965644036,0.));
#1659=CARTESIAN_POINT('',(3.9,-2.83367965644036,0.));
#1660=CARTESIAN_POINT('',(6.55500000000001,-5.48867965644036,0.));
#1661=CARTESIAN_POINT('',(3.9,2.83367965644036,0.));
#1662=CARTESIAN_POINT('',(3.9,-2.83367965644036,0.));
#1663=CARTESIAN_POINT('',(6.55500000000001,5.48867965644036,0.));
#1664=CARTESIAN_POINT('',(3.9,2.83367965644036,0.));
#1665=CARTESIAN_POINT('',(8.19500000000001,5.48867965644036,0.));
#1666=CARTESIAN_POINT('',(6.55500000000001,5.48867965644036,0.));
#1667=CARTESIAN_POINT('',(8.20793600210228,3.125,0.));
#1668=CARTESIAN_POINT('',(8.19500000000001,5.48867965644036,0.));
#1669=CARTESIAN_POINT('',(8.545,3.125,0.));
#1670=CARTESIAN_POINT('',(8.19500000000001,3.125,0.));
#1671=CARTESIAN_POINT('',(10.,4.58,0.));
#1672=CARTESIAN_POINT('',(8.545,3.125,0.));
#1673=CARTESIAN_POINT('',(10.,9.5,0.));
#1674=CARTESIAN_POINT('',(10.,4.58,0.));
#1675=CARTESIAN_POINT('',(9.5,10.,0.));
#1676=CARTESIAN_POINT('Origin',(9.5,9.5,0.));
#1677=CARTESIAN_POINT('',(4.58,10.,0.));
#1678=CARTESIAN_POINT('',(10.,10.,0.));
#1679=CARTESIAN_POINT('',(3.125,8.545,0.));
#1680=CARTESIAN_POINT('',(4.58,10.,0.));
#1681=CARTESIAN_POINT('',(3.125,8.195,0.));
#1682=CARTESIAN_POINT('',(3.125,8.545,0.));
#1683=CARTESIAN_POINT('',(5.5,8.195,0.));
#1684=CARTESIAN_POINT('',(3.125,8.195,0.));
#1685=CARTESIAN_POINT('',(5.5,6.555,0.));
#1686=CARTESIAN_POINT('',(5.5,8.195,0.));
#1687=CARTESIAN_POINT('',(2.84499999999999,3.9,0.));
#1688=CARTESIAN_POINT('',(5.5,6.555,0.));
#1689=CARTESIAN_POINT('',(-2.84499999999999,3.9,0.));
#1690=CARTESIAN_POINT('',(2.84499999999999,3.9,0.));
#1691=CARTESIAN_POINT('',(-5.5,6.555,0.));
#1692=CARTESIAN_POINT('',(-2.84499999999999,3.9,0.));
#1693=CARTESIAN_POINT('',(-5.5,8.195,0.));
#1694=CARTESIAN_POINT('',(-5.5,6.555,0.));
#1695=CARTESIAN_POINT('',(-3.125,8.195,0.));
#1696=CARTESIAN_POINT('',(-5.5,8.195,0.));
#1697=CARTESIAN_POINT('',(-3.125,8.545,0.));
#1698=CARTESIAN_POINT('',(-3.125,8.195,0.));
#1699=CARTESIAN_POINT('',(-4.58,10.,0.));
#1700=CARTESIAN_POINT('',(-3.125,8.545,0.));
#1701=CARTESIAN_POINT('',(-9.5,10.,0.));
#1702=CARTESIAN_POINT('',(-4.58,10.,0.));
#1703=CARTESIAN_POINT('',(-10.,9.5,0.));
#1704=CARTESIAN_POINT('Origin',(-9.5,9.5,0.));
#1705=CARTESIAN_POINT('',(-10.,4.58,0.));
#1706=CARTESIAN_POINT('',(-10.,10.,0.));
#1707=CARTESIAN_POINT('',(-8.54500000000001,3.125,0.));
#1708=CARTESIAN_POINT('',(-10.,4.58,0.));
#1709=CARTESIAN_POINT('',(-8.19500000000001,3.125,0.));
#1710=CARTESIAN_POINT('',(-8.54500000000001,3.125,0.));
#1711=CARTESIAN_POINT('',(-8.19500000000001,5.48867965644036,0.));
#1712=CARTESIAN_POINT('',(-8.19500000000001,3.125,0.));
#1713=CARTESIAN_POINT('',(-6.55500000000001,5.48867965644036,0.));
#1714=CARTESIAN_POINT('',(-8.19500000000001,5.48867965644036,0.));
#1715=CARTESIAN_POINT('',(-3.9,2.83367965644036,0.));
#1716=CARTESIAN_POINT('',(-6.55500000000001,5.48867965644036,0.));
#1717=CARTESIAN_POINT('',(-3.9,-2.83367965644036,0.));
#1718=CARTESIAN_POINT('',(-3.9,2.83367965644036,0.));
#1719=CARTESIAN_POINT('',(-6.55500000000001,-5.48867965644036,0.));
#1720=CARTESIAN_POINT('',(-3.9,-2.83367965644036,0.));
#1721=CARTESIAN_POINT('',(-8.19500000000001,-5.48867965644036,0.));
#1722=CARTESIAN_POINT('',(-6.55500000000001,-5.48867965644036,0.));
#1723=CARTESIAN_POINT('',(-8.19500000000001,-3.125,0.));
#1724=CARTESIAN_POINT('',(-8.19500000000001,-5.48867965644036,0.));
#1725=CARTESIAN_POINT('',(-8.54500000000001,-3.125,0.));
#1726=CARTESIAN_POINT('',(-8.19500000000001,-3.125,0.));
#1727=CARTESIAN_POINT('',(-8.54500000000001,-3.125,0.));
#1728=CARTESIAN_POINT('',(2.1,2.57175827820944E-16,0.));
#1729=CARTESIAN_POINT('Origin',(0.,0.,0.));
#1730=CARTESIAN_POINT('Origin',(9.5,-9.5,0.));
#1731=CARTESIAN_POINT('',(9.5,-10.,-200.));
#1732=CARTESIAN_POINT('',(10.,-9.5,-200.));
#1733=CARTESIAN_POINT('Origin',(9.5,-9.5,-200.));
#1734=CARTESIAN_POINT('',(10.,-9.5,0.));
#1735=CARTESIAN_POINT('',(9.5,-10.,0.));
#1736=CARTESIAN_POINT('Origin',(10.,-10.,0.));
#1737=CARTESIAN_POINT('',(4.58,-10.,-200.));
#1738=CARTESIAN_POINT('',(4.58,-10.,0.));
#1739=CARTESIAN_POINT('',(4.58,-10.,-200.));
#1740=CARTESIAN_POINT('Origin',(-9.5,9.5,0.));
#1741=CARTESIAN_POINT('',(-9.5,10.,-200.));
#1742=CARTESIAN_POINT('',(-10.,9.5,-200.));
#1743=CARTESIAN_POINT('Origin',(-9.5,9.5,-200.));
#1744=CARTESIAN_POINT('',(-10.,9.5,0.));
#1745=CARTESIAN_POINT('',(-9.5,10.,0.));
#1746=CARTESIAN_POINT('Origin',(-10.,10.,0.));
#1747=CARTESIAN_POINT('',(-4.58,10.,-200.));
#1748=CARTESIAN_POINT('',(-4.58,10.,0.));
#1749=CARTESIAN_POINT('',(-4.58,10.,-200.));
#1750=CARTESIAN_POINT('Origin',(9.5,9.5,0.));
#1751=CARTESIAN_POINT('',(10.,9.5,-200.));
#1752=CARTESIAN_POINT('',(9.5,10.,-200.));
#1753=CARTESIAN_POINT('Origin',(9.5,9.5,-200.));
#1754=CARTESIAN_POINT('',(9.5,10.,0.));
#1755=CARTESIAN_POINT('',(10.,9.5,0.));
#1756=CARTESIAN_POINT('Origin',(4.58,10.,0.));
#1757=CARTESIAN_POINT('',(4.58,10.,-200.));
#1758=CARTESIAN_POINT('',(10.,10.,-200.));
#1759=CARTESIAN_POINT('',(4.58,10.,0.));
#1760=CARTESIAN_POINT('Origin',(0.,0.,0.));
#1761=CARTESIAN_POINT('',(2.1,0.,-200.));
#1762=CARTESIAN_POINT('Origin',(0.,0.,-200.));
#1763=CARTESIAN_POINT('',(2.1,-2.57175827820944E-16,0.));
#1764=CARTESIAN_POINT('Origin',(-5.5,8.195,0.));
#1765=CARTESIAN_POINT('',(-5.5,6.555,-200.));
#1766=CARTESIAN_POINT('',(-5.5,6.555,0.));
#1767=CARTESIAN_POINT('',(-5.5,8.195,-200.));
#1768=CARTESIAN_POINT('',(-5.5,6.555,-200.));
#1769=CARTESIAN_POINT('',(-5.5,8.195,0.));
#1770=CARTESIAN_POINT('Origin',(-3.125,8.195,0.));
#1771=CARTESIAN_POINT('',(-3.125,8.195,-200.));
#1772=CARTESIAN_POINT('',(-5.5,8.195,-200.));
#1773=CARTESIAN_POINT('',(-3.125,8.195,0.));
#1774=CARTESIAN_POINT('Origin',(-3.125,8.545,0.));
#1775=CARTESIAN_POINT('',(-3.125,8.545,-200.));
#1776=CARTESIAN_POINT('',(-3.125,8.195,-200.));
#1777=CARTESIAN_POINT('',(-3.125,8.545,0.));
#1778=CARTESIAN_POINT('Origin',(-4.58,10.,0.));
#1779=CARTESIAN_POINT('',(-3.125,8.545,-200.));
#1780=CARTESIAN_POINT('Origin',(-10.,4.58,0.));
#1781=CARTESIAN_POINT('',(-10.,4.58,-200.));
#1782=CARTESIAN_POINT('',(-10.,10.,-200.));
#1783=CARTESIAN_POINT('',(-10.,4.58,0.));
#1784=CARTESIAN_POINT('Origin',(-8.54500000000001,3.125,0.));
#1785=CARTESIAN_POINT('',(-8.54500000000001,3.125,-200.));
#1786=CARTESIAN_POINT('',(-10.,4.58,-200.));
#1787=CARTESIAN_POINT('',(-8.54500000000001,3.125,0.));
#1788=CARTESIAN_POINT('Origin',(-8.19500000000001,3.125,0.));
#1789=CARTESIAN_POINT('',(-8.19500000000001,3.125,-200.));
#1790=CARTESIAN_POINT('',(-8.54500000000001,3.125,-200.));
#1791=CARTESIAN_POINT('',(-8.19500000000001,3.125,0.));
#1792=CARTESIAN_POINT('Origin',(-8.19500000000001,5.48867965644036,0.));
#1793=CARTESIAN_POINT('',(-8.19500000000001,5.48867965644036,-200.));
#1794=CARTESIAN_POINT('',(-8.19500000000001,3.125,-200.));
#1795=CARTESIAN_POINT('',(-8.19500000000001,5.48867965644036,0.));
#1796=CARTESIAN_POINT('Origin',(-6.55500000000001,5.48867965644036,0.));
#1797=CARTESIAN_POINT('',(-6.55500000000001,5.48867965644036,-200.));
#1798=CARTESIAN_POINT('',(-8.19500000000001,5.48867965644036,-200.));
#1799=CARTESIAN_POINT('',(-6.55500000000001,5.48867965644036,0.));
#1800=CARTESIAN_POINT('Origin',(-3.9,2.83367965644036,0.));
#1801=CARTESIAN_POINT('',(-3.9,2.83367965644036,-200.));
#1802=CARTESIAN_POINT('',(-6.55500000000001,5.48867965644036,-200.));
#1803=CARTESIAN_POINT('',(-3.9,2.83367965644036,0.));
#1804=CARTESIAN_POINT('Origin',(-3.9,-2.83367965644036,0.));
#1805=CARTESIAN_POINT('',(-3.9,-2.83367965644036,-200.));
#1806=CARTESIAN_POINT('',(-3.9,2.83367965644036,-200.));
#1807=CARTESIAN_POINT('',(-3.9,-2.83367965644036,0.));
#1808=CARTESIAN_POINT('Origin',(-6.55500000000001,-5.48867965644036,0.));
#1809=CARTESIAN_POINT('',(-6.55500000000001,-5.48867965644036,-200.));
#1810=CARTESIAN_POINT('',(-3.9,-2.83367965644036,-200.));
#1811=CARTESIAN_POINT('',(-6.55500000000001,-5.48867965644036,0.));
#1812=CARTESIAN_POINT('Origin',(-8.19500000000001,-5.48867965644036,0.));
#1813=CARTESIAN_POINT('',(-8.19500000000001,-5.48867965644036,-200.));
#1814=CARTESIAN_POINT('',(-6.55500000000001,-5.48867965644036,-200.));
#1815=CARTESIAN_POINT('',(-8.19500000000001,-5.48867965644036,0.));
#1816=CARTESIAN_POINT('Origin',(-8.19500000000001,-3.125,0.));
#1817=CARTESIAN_POINT('',(-8.19500000000001,-3.125,-200.));
#1818=CARTESIAN_POINT('',(-8.19500000000001,-5.48867965644036,-200.));
#1819=CARTESIAN_POINT('',(-8.19500000000001,-3.125,0.));
#1820=CARTESIAN_POINT('Origin',(-8.54500000000001,-3.125,0.));
#1821=CARTESIAN_POINT('',(-8.54500000000001,-3.125,-200.));
#1822=CARTESIAN_POINT('',(-8.19500000000001,-3.125,-200.));
#1823=CARTESIAN_POINT('',(-8.54500000000001,-3.125,0.));
#1824=CARTESIAN_POINT('Origin',(-10.,-4.58,0.));
#1825=CARTESIAN_POINT('',(-8.54500000000001,-3.125,-200.));
#1826=CARTESIAN_POINT('Origin',(-4.58,-10.,0.));
#1827=CARTESIAN_POINT('',(-4.58,-10.,-200.));
#1828=CARTESIAN_POINT('',(-10.,-10.,-200.));
#1829=CARTESIAN_POINT('',(-4.58,-10.,0.));
#1830=CARTESIAN_POINT('Origin',(-3.125,-8.545,0.));
#1831=CARTESIAN_POINT('',(-3.125,-8.545,-200.));
#1832=CARTESIAN_POINT('',(-4.58,-10.,-200.));
#1833=CARTESIAN_POINT('',(-3.125,-8.545,0.));
#1834=CARTESIAN_POINT('Origin',(-3.125,-8.195,0.));
#1835=CARTESIAN_POINT('',(-3.125,-8.195,-200.));
#1836=CARTESIAN_POINT('',(-3.125,-8.545,-200.));
#1837=CARTESIAN_POINT('',(-3.125,-8.195,0.));
#1838=CARTESIAN_POINT('Origin',(-5.5,-8.195,0.));
#1839=CARTESIAN_POINT('',(-5.5,-8.195,-200.));
#1840=CARTESIAN_POINT('',(-3.125,-8.195,-200.));
#1841=CARTESIAN_POINT('',(-5.5,-8.195,0.));
#1842=CARTESIAN_POINT('Origin',(-5.5,-6.555,0.));
#1843=CARTESIAN_POINT('',(-5.5,-6.555,-200.));
#1844=CARTESIAN_POINT('',(-5.5,-8.195,-200.));
#1845=CARTESIAN_POINT('',(-5.5,-6.555,0.));
#1846=CARTESIAN_POINT('Origin',(-2.84499999999999,-3.9,0.));
#1847=CARTESIAN_POINT('',(-2.84499999999999,-3.9,-200.));
#1848=CARTESIAN_POINT('',(-5.5,-6.555,-200.));
#1849=CARTESIAN_POINT('',(-2.84499999999999,-3.9,0.));
#1850=CARTESIAN_POINT('Origin',(2.84499999999999,-3.9,0.));
#1851=CARTESIAN_POINT('',(2.84499999999999,-3.9,-200.));
#1852=CARTESIAN_POINT('',(-2.84499999999999,-3.9,-200.));
#1853=CARTESIAN_POINT('',(2.84499999999999,-3.9,0.));
#1854=CARTESIAN_POINT('Origin',(5.5,-6.555,0.));
#1855=CARTESIAN_POINT('',(5.5,-6.555,-200.));
#1856=CARTESIAN_POINT('',(2.84499999999999,-3.9,-200.));
#1857=CARTESIAN_POINT('',(5.5,-6.555,0.));
#1858=CARTESIAN_POINT('Origin',(5.5,-8.195,0.));
#1859=CARTESIAN_POINT('',(5.5,-8.195,-200.));
#1860=CARTESIAN_POINT('',(5.5,-6.555,-200.));
#1861=CARTESIAN_POINT('',(5.5,-8.195,0.));
#1862=CARTESIAN_POINT('Origin',(3.125,-8.195,0.));
#1863=CARTESIAN_POINT('',(3.125,-8.195,-200.));
#1864=CARTESIAN_POINT('',(5.5,-8.195,-200.));
#1865=CARTESIAN_POINT('',(3.125,-8.195,0.));
#1866=CARTESIAN_POINT('Origin',(3.125,-8.545,0.));
#1867=CARTESIAN_POINT('',(3.125,-8.545,-200.));
#1868=CARTESIAN_POINT('',(3.125,-8.195,-200.));
#1869=CARTESIAN_POINT('',(3.125,-8.545,0.));
#1870=CARTESIAN_POINT('Origin',(4.58,-10.,0.));
#1871=CARTESIAN_POINT('',(3.125,-8.545,-200.));
#1872=CARTESIAN_POINT('Origin',(10.,-4.58,0.));
#1873=CARTESIAN_POINT('',(10.,-4.58,-200.));
#1874=CARTESIAN_POINT('',(10.,-10.,-200.));
#1875=CARTESIAN_POINT('',(10.,-4.58,0.));
#1876=CARTESIAN_POINT('Origin',(8.54500000000001,-3.125,0.));
#1877=CARTESIAN_POINT('',(8.54500000000001,-3.125,-200.));
#1878=CARTESIAN_POINT('',(10.,-4.58,-200.));
#1879=CARTESIAN_POINT('',(8.54500000000001,-3.125,0.));
#1880=CARTESIAN_POINT('Origin',(8.19500000000001,-3.125,0.));
#1881=CARTESIAN_POINT('',(8.19500000000001,-3.125,-200.));
#1882=CARTESIAN_POINT('',(8.54500000000001,-3.125,-200.));
#1883=CARTESIAN_POINT('',(8.19500000000001,-3.125,0.));
#1884=CARTESIAN_POINT('Origin',(8.19500000000001,-5.48867965644036,0.));
#1885=CARTESIAN_POINT('',(8.19500000000001,-5.48867965644036,-200.));
#1886=CARTESIAN_POINT('',(8.19500000000001,-3.125,-200.));
#1887=CARTESIAN_POINT('',(8.19500000000001,-5.48867965644036,0.));
#1888=CARTESIAN_POINT('Origin',(6.55500000000001,-5.48867965644036,0.));
#1889=CARTESIAN_POINT('',(6.55500000000001,-5.48867965644036,-200.));
#1890=CARTESIAN_POINT('',(8.19500000000001,-5.48867965644036,-200.));
#1891=CARTESIAN_POINT('',(6.55500000000001,-5.48867965644036,0.));
#1892=CARTESIAN_POINT('Origin',(3.9,-2.83367965644036,0.));
#1893=CARTESIAN_POINT('',(3.9,-2.83367965644036,-200.));
#1894=CARTESIAN_POINT('',(6.55500000000001,-5.48867965644036,-200.));
#1895=CARTESIAN_POINT('',(3.9,-2.83367965644036,0.));
#1896=CARTESIAN_POINT('Origin',(3.9,2.83367965644036,0.));
#1897=CARTESIAN_POINT('',(3.9,2.83367965644036,-200.));
#1898=CARTESIAN_POINT('',(3.9,-2.83367965644036,-200.));
#1899=CARTESIAN_POINT('',(3.9,2.83367965644036,0.));
#1900=CARTESIAN_POINT('Origin',(6.55500000000001,5.48867965644036,0.));
#1901=CARTESIAN_POINT('',(6.55500000000001,5.48867965644036,-200.));
#1902=CARTESIAN_POINT('',(3.9,2.83367965644036,-200.));
#1903=CARTESIAN_POINT('',(6.55500000000001,5.48867965644036,0.));
#1904=CARTESIAN_POINT('Origin',(8.19500000000001,5.48867965644036,0.));
#1905=CARTESIAN_POINT('',(8.19500000000001,5.48867965644036,-200.));
#1906=CARTESIAN_POINT('',(6.55500000000001,5.48867965644036,-200.));
#1907=CARTESIAN_POINT('',(8.19500000000001,5.48867965644036,0.));
#1908=CARTESIAN_POINT('Origin',(8.20793600210228,3.125,0.));
#1909=CARTESIAN_POINT('',(8.20793600210228,3.125,-200.));
#1910=CARTESIAN_POINT('',(8.19500000000001,5.48867965644036,-200.));
#1911=CARTESIAN_POINT('',(8.20793600210228,3.125,0.));
#1912=CARTESIAN_POINT('Origin',(8.545,3.125,0.));
#1913=CARTESIAN_POINT('',(8.545,3.125,-200.));
#1914=CARTESIAN_POINT('',(8.19500000000001,3.125,-200.));
#1915=CARTESIAN_POINT('',(8.545,3.125,0.));
#1916=CARTESIAN_POINT('Origin',(10.,4.58,0.));
#1917=CARTESIAN_POINT('',(10.,4.58,-200.));
#1918=CARTESIAN_POINT('',(8.545,3.125,-200.));
#1919=CARTESIAN_POINT('',(10.,4.58,0.));
#1920=CARTESIAN_POINT('Origin',(10.,10.,0.));
#1921=CARTESIAN_POINT('',(10.,4.58,-200.));
#1922=CARTESIAN_POINT('Origin',(3.125,8.545,0.));
#1923=CARTESIAN_POINT('',(3.125,8.545,-200.));
#1924=CARTESIAN_POINT('',(4.58,10.,-200.));
#1925=CARTESIAN_POINT('',(3.125,8.545,0.));
#1926=CARTESIAN_POINT('Origin',(3.125,8.195,0.));
#1927=CARTESIAN_POINT('',(3.125,8.195,-200.));
#1928=CARTESIAN_POINT('',(3.125,8.545,-200.));
#1929=CARTESIAN_POINT('',(3.125,8.195,0.));
#1930=CARTESIAN_POINT('Origin',(5.5,8.195,0.));
#1931=CARTESIAN_POINT('',(5.5,8.195,-200.));
#1932=CARTESIAN_POINT('',(3.125,8.195,-200.));
#1933=CARTESIAN_POINT('',(5.5,8.195,0.));
#1934=CARTESIAN_POINT('Origin',(5.5,6.555,0.));
#1935=CARTESIAN_POINT('',(5.5,6.555,-200.));
#1936=CARTESIAN_POINT('',(5.5,8.195,-200.));
#1937=CARTESIAN_POINT('',(5.5,6.555,0.));
#1938=CARTESIAN_POINT('Origin',(2.84499999999999,3.9,0.));
#1939=CARTESIAN_POINT('',(2.84499999999999,3.9,-200.));
#1940=CARTESIAN_POINT('',(5.5,6.555,-200.));
#1941=CARTESIAN_POINT('',(2.84499999999999,3.9,0.));
#1942=CARTESIAN_POINT('Origin',(-2.84499999999999,3.9,0.));
#1943=CARTESIAN_POINT('',(-2.84499999999999,3.9,-200.));
#1944=CARTESIAN_POINT('',(2.84499999999999,3.9,-200.));
#1945=CARTESIAN_POINT('',(-2.84499999999999,3.9,0.));
#1946=CARTESIAN_POINT('Origin',(-5.5,6.555,0.));
#1947=CARTESIAN_POINT('',(-2.84499999999999,3.9,-200.));
#1948=CARTESIAN_POINT('Origin',(0.,0.,-200.));
#1949=UNCERTAINTY_MEASURE_WITH_UNIT(LENGTH_MEASURE(0.01),#1953,
'DISTANCE_ACCURACY_VALUE',
'Maximum model space distance between geometric entities at asserted c
onnectivities');
#1950=UNCERTAINTY_MEASURE_WITH_UNIT(LENGTH_MEASURE(0.01),#1953,
'DISTANCE_ACCURACY_VALUE',
'Maximum model space distance between geometric entities at asserted c
onnectivities');
#1951=(
GEOMETRIC_REPRESENTATION_CONTEXT(3)
GLOBAL_UNCERTAINTY_ASSIGNED_CONTEXT((#1949))
GLOBAL_UNIT_ASSIGNED_CONTEXT((#1953,#1955,#1956))
REPRESENTATION_CONTEXT('','3D')
);
#1952=(
GEOMETRIC_REPRESENTATION_CONTEXT(3)
GLOBAL_UNCERTAINTY_ASSIGNED_CONTEXT((#1950))
GLOBAL_UNIT_ASSIGNED_CONTEXT((#1953,#1955,#1956))
REPRESENTATION_CONTEXT('','3D')
);
#1953=(
LENGTH_UNIT()
NAMED_UNIT(*)
SI_UNIT(.MILLI.,.METRE.)
);
#1954=(
LENGTH_UNIT()
NAMED_UNIT(*)
SI_UNIT(.CENTI.,.METRE.)
);
#1955=(
NAMED_UNIT(*)
PLANE_ANGLE_UNIT()
SI_UNIT($,.RADIAN.)
);
#1956=(
NAMED_UNIT(*)
SI_UNIT($,.STERADIAN.)
SOLID_ANGLE_UNIT()
);
#1957=SHAPE_DEFINITION_REPRESENTATION(#1958,#1959);
#1958=PRODUCT_DEFINITION_SHAPE('',$,#1961);
#1959=SHAPE_REPRESENTATION('',(#1233),#1951);
#1960=PRODUCT_DEFINITION_CONTEXT('part definition',#1965,'design');
#1961=PRODUCT_DEFINITION('Perfil2020','Perfil2020',#1962,#1960);
#1962=PRODUCT_DEFINITION_FORMATION('',$,#1967);
#1963=PRODUCT_RELATED_PRODUCT_CATEGORY('Perfil2020','Perfil2020',(#1967));
#1964=APPLICATION_PROTOCOL_DEFINITION('international standard',
'automotive_design',2009,#1965);
#1965=APPLICATION_CONTEXT(
'Core Data for Automotive Mechanical Design Process');
#1966=PRODUCT_CONTEXT('part definition',#1965,'mechanical');
#1967=PRODUCT('Perfil2020','Perfil2020',$,(#1966));
#1968=PRESENTATION_STYLE_ASSIGNMENT((#1969));
#1969=SURFACE_STYLE_USAGE(.BOTH.,#1972);
#1970=SURFACE_STYLE_RENDERING_WITH_PROPERTIES($,#1976,(#1971));
#1971=SURFACE_STYLE_TRANSPARENT(0.);
#1972=SURFACE_SIDE_STYLE('',(#1973,#1970));
#1973=SURFACE_STYLE_FILL_AREA(#1974);
#1974=FILL_AREA_STYLE('',(#1975));
#1975=FILL_AREA_STYLE_COLOUR('',#1976);
#1976=COLOUR_RGB('',0.956862745098039,0.956862745098039,0.956862745098039);
ENDSEC;
END-ISO-10303-21;
